<svg xmlns="http://www.w3.org/2000/svg" xmlns:xlink="http://www.w3.org/1999/xlink" width="500" zoomAndPan="magnify" viewBox="0 0 375 374.999991" height="500" preserveAspectRatio="xMidYMid meet" version="1.0"><defs><filter x="0%" y="0%" width="100%" height="100%" id="ab42bcaefa"><feColorMatrix values="0 0 0 0 1 0 0 0 0 1 0 0 0 0 1 0 0 0 1 0" color-interpolation-filters="sRGB"/></filter><clipPath id="4f56dbce03"><path d="M 126 123.136719 L 216 123.136719 L 216 252.136719 L 126 252.136719 Z M 126 123.136719 " clip-rule="nonzero"/></clipPath><clipPath id="1ff70349a6"><path d="M 66.914062 123.136719 L 308.414062 123.136719 L 308.414062 252.136719 L 66.914062 252.136719 Z M 66.914062 123.136719 " clip-rule="nonzero"/></clipPath><mask id="efd1d6a230"><g filter="url(#ab42bcaefa)"><rect x="-37.5" width="450" fill="#000000" y="-37.499999" height="449.999989" fill-opacity="0.67"/></g></mask><clipPath id="2817b08df9"><path d="M 177 49 L 187.03125 49 L 187.03125 59 L 177 59 Z M 177 49 " clip-rule="nonzero"/></clipPath><clipPath id="09125261eb"><path d="M 0.28125 0.136719 L 179 0.136719 L 179 129.136719 L 0.28125 129.136719 Z M 0.28125 0.136719 " clip-rule="nonzero"/></clipPath><clipPath id="7079818b73"><rect x="0" width="188" y="0" height="130"/></clipPath></defs><g clip-path="url(#4f56dbce03)"><path fill="#595959" d="M 156.082031 146.144531 L 156.082031 252.128906 L 126.109375 252.128906 L 126.109375 123.148438 L 215.527344 123.148438 L 215.527344 146.144531 Z M 156.082031 146.144531 " fill-opacity="1" fill-rule="evenodd"/></g><g clip-path="url(#1ff70349a6)"><path fill="#00040d" d="M 276.476562 252.128906 L 199.464844 252.128906 C 186.933594 252.128906 178.484375 250.007812 174.113281 245.714844 C 169.746094 241.464844 167.535156 233.425781 167.535156 221.632812 L 167.535156 153.601562 C 167.535156 152.101562 167.574219 150.660156 167.648438 149.277344 L 197.507812 149.277344 L 197.507812 227.882812 L 278.433594 227.882812 L 278.433594 209.464844 L 308.40625 209.464844 L 308.40625 221.632812 C 308.40625 233.425781 306.199219 241.464844 301.746094 245.714844 C 297.335938 250.007812 288.925781 252.128906 276.476562 252.128906 Z M 308.40625 165.8125 L 278.433594 165.8125 L 278.433594 146.144531 L 218.660156 146.144531 L 218.660156 123.148438 L 276.476562 123.148438 C 288.925781 123.148438 297.335938 125.3125 301.746094 129.605469 C 306.203125 133.894531 308.410156 141.9375 308.410156 153.601562 L 308.410156 165.8125 Z M 119.542969 146.144531 L 66.914062 146.144531 L 66.914062 123.148438 L 119.542969 123.148438 Z M 119.542969 146.144531 " fill-opacity="1" fill-rule="evenodd"/></g><g mask="url(#efd1d6a230)"><g transform="matrix(1, 0, 0, 1, 127, 123)"><g clip-path="url(#7079818b73)"><path fill="#393536" d="M 176.171875 74.367188 L 140.421875 74.367188 L 140.421875 73.316406 L 176.171875 73.316406 L 176.171875 74.367188 " fill-opacity="1" fill-rule="nonzero"/><g clip-path="url(#2817b08df9)"><path fill="#393536" d="M 182.480469 57.046875 C 180.894531 57.046875 179.605469 55.753906 179.605469 54.160156 C 179.605469 52.566406 180.894531 51.273438 182.480469 51.273438 C 184.066406 51.273438 185.351562 52.566406 185.351562 54.160156 C 185.351562 55.753906 184.066406 57.046875 182.480469 57.046875 Z M 182.480469 49.582031 C 179.960938 49.582031 177.921875 51.632812 177.921875 54.160156 C 177.921875 56.6875 179.960938 58.738281 182.480469 58.738281 C 184.996094 58.738281 187.035156 56.6875 187.035156 54.160156 C 187.035156 51.632812 184.996094 49.582031 182.480469 49.582031 " fill-opacity="1" fill-rule="nonzero"/></g><path fill="#393536" d="M 149.882812 88 C 148.296875 88 147.011719 86.707031 147.011719 85.113281 C 147.011719 83.519531 148.296875 82.226562 149.882812 82.226562 C 151.46875 82.226562 152.753906 83.519531 152.753906 85.113281 C 152.753906 86.707031 151.46875 88 149.882812 88 Z M 149.882812 80.535156 C 147.367188 80.535156 145.328125 82.585938 145.328125 85.113281 C 145.328125 87.644531 147.367188 89.691406 149.882812 89.691406 C 152.398438 89.691406 154.441406 87.644531 154.441406 85.113281 C 154.441406 82.585938 152.398438 80.535156 149.882812 80.535156 " fill-opacity="1" fill-rule="nonzero"/><path fill="#393536" d="M 55.574219 76.652344 C 53.839844 76.652344 52.433594 78.066406 52.433594 79.808594 C 52.433594 81.550781 53.839844 82.964844 55.574219 82.964844 C 57.308594 82.964844 58.71875 81.550781 58.71875 79.808594 C 58.71875 78.066406 57.308594 76.652344 55.574219 76.652344 " fill-opacity="1" fill-rule="nonzero"/><path fill="#393536" d="M 178.535156 70.683594 C 176.796875 70.683594 175.390625 72.097656 175.390625 73.839844 C 175.390625 75.585938 176.796875 77 178.535156 77 C 180.269531 77 181.675781 75.585938 181.675781 73.839844 C 181.675781 72.097656 180.269531 70.683594 178.535156 70.683594 " fill-opacity="1" fill-rule="nonzero"/><path fill="#393536" d="M 148.46875 40.417969 C 146.734375 40.417969 145.328125 41.832031 145.328125 43.574219 C 145.328125 45.316406 146.734375 46.730469 148.46875 46.730469 C 150.203125 46.730469 151.609375 45.316406 151.609375 43.574219 C 151.609375 41.832031 150.203125 40.417969 148.46875 40.417969 " fill-opacity="1" fill-rule="nonzero"/><path fill="#393536" d="M 130.410156 68.761719 C 129.316406 68.761719 128.429688 67.871094 128.429688 66.769531 C 128.429688 65.671875 129.316406 64.78125 130.410156 64.78125 C 131.503906 64.78125 132.390625 65.671875 132.390625 66.769531 C 132.390625 67.871094 131.503906 68.761719 130.410156 68.761719 Z M 130.410156 63.613281 C 128.671875 63.613281 127.265625 65.027344 127.265625 66.769531 C 127.265625 68.515625 128.671875 69.929688 130.410156 69.929688 C 132.144531 69.929688 133.550781 68.515625 133.550781 66.769531 C 133.550781 65.027344 132.144531 63.613281 130.410156 63.613281 " fill-opacity="1" fill-rule="nonzero"/><path fill="#393536" d="M 61.121094 47.554688 C 60.027344 47.554688 59.140625 46.664062 59.140625 45.566406 C 59.140625 44.464844 60.027344 43.574219 61.121094 43.574219 C 62.214844 43.574219 63.105469 44.464844 63.105469 45.566406 C 63.105469 46.664062 62.214844 47.554688 61.121094 47.554688 Z M 61.121094 42.410156 C 59.386719 42.410156 57.980469 43.820312 57.980469 45.566406 C 57.980469 47.308594 59.386719 48.722656 61.121094 48.722656 C 62.859375 48.722656 64.265625 47.308594 64.265625 45.566406 C 64.265625 43.820312 62.859375 42.410156 61.121094 42.410156 " fill-opacity="1" fill-rule="nonzero"/><g clip-path="url(#09125261eb)"><path fill="#393536" d="M 68.152344 99.695312 L 27.386719 99.695312 L 0.28125 126.902344 L 0.28125 129.128906 L 28.035156 101.273438 L 68.800781 101.273438 L 84 86 L 146.269531 86 L 146.269531 84.425781 L 83.351562 84.425781 Z M 58.828125 46.472656 L 58.828125 44.898438 L 20.496094 44.898438 L 0.28125 24.589844 L 0.28125 26.816406 L 19.847656 46.472656 Z M 111.875 53.445312 L 100.714844 64.65625 L 80.867188 64.65625 L 71.515625 55.257812 L 0.28125 55.257812 L 0.28125 56.835938 L 70.863281 56.835938 L 80.21875 66.234375 L 101.367188 66.234375 L 112.523438 55.019531 L 178.535156 55.019531 L 178.535156 53.445312 Z M 27.496094 29.0625 L 68.257812 29.0625 L 83.457031 44.332031 L 146.269531 44.332031 L 146.269531 43.28125 L 83.890625 43.28125 L 68.691406 28.011719 L 27.929688 28.011719 L 0.28125 0.136719 L 0.28125 1.625 L 27.34375 28.90625 Z M 70.3125 79.328125 L 70.464844 79.480469 L 118.746094 79.480469 L 128.804688 69.378906 L 128.0625 68.636719 L 118.3125 78.429688 L 70.898438 78.429688 L 59.195312 66.675781 L 59.042969 66.519531 L 0.28125 66.519531 L 0.28125 67.570312 L 58.609375 67.570312 Z M 52.796875 80.394531 L 52.796875 79.34375 L 15.078125 79.34375 L 0.28125 94.210938 L 0.28125 95.695312 L 15.511719 80.394531 L 52.796875 80.394531 " fill-opacity="1" fill-rule="nonzero"/></g></g></g></g></svg>