<?xml version="1.0" standalone="no"?>
<!DOCTYPE svg PUBLIC "-//W3C//DTD SVG 20010904//EN"
 "http://www.w3.org/TR/2001/REC-SVG-20010904/DTD/svg10.dtd">
<svg version="1.0" xmlns="http://www.w3.org/2000/svg"
 width="730.000000pt" height="1134.000000pt" viewBox="0 0 730.000000 1134.000000"
 preserveAspectRatio="xMidYMid meet">

<g transform="translate(0.000000,1134.000000) scale(0.100000,-0.100000)"
fill="#000000" stroke="none">
<path d="M7276 9814 c-7 -18 0 -34 15 -34 5 0 9 11 9 25 0 28 -15 34 -24 9z"/>
<path d="M5059 9756 c-2 -2 -47 -6 -99 -9 -52 -3 -126 -10 -165 -16 -152 -23
-335 -38 -382 -30 -72 12 -295 11 -355 -2 -29 -6 -86 -22 -127 -35 -78 -26
-117 -30 -123 -14 -4 14 -53 14 -130 1 -36 -6 -109 -9 -162 -6 -60 3 -96 2
-96 -4 0 -6 -19 -15 -42 -22 -62 -16 -141 -43 -158 -54 -8 -5 -38 -21 -67 -36
-28 -14 -66 -43 -84 -63 -23 -27 -38 -36 -53 -32 -30 7 -54 -15 -72 -67 -11
-33 -25 -52 -50 -66 -19 -11 -35 -25 -35 -31 -1 -5 -2 -16 -3 -22 0 -7 -12
-15 -26 -16 -26 -4 -70 -48 -70 -71 0 -10 -6 -10 -26 4 -14 9 -27 15 -29 13
-2 -2 -7 -23 -12 -48 -7 -37 -13 -44 -29 -42 -10 2 -21 8 -23 13 -5 16 -30
-24 -31 -49 0 -13 -9 -42 -20 -64 -11 -23 -20 -46 -20 -50 0 -27 -44 -100 -68
-112 -33 -18 -62 -51 -82 -91 -8 -16 -24 -43 -36 -60 -33 -45 -48 -135 -45
-270 3 -208 -27 -365 -72 -365 -24 0 -133 -58 -156 -84 -31 -33 -44 -33 -163
6 -124 41 -125 40 -110 -79 6 -48 14 -123 17 -167 6 -78 6 -79 -17 -73 -174
43 -184 48 -227 111 -59 85 -83 207 -85 423 -1 74 -3 84 -24 98 -12 9 -22 25
-22 35 0 24 51 61 58 42 11 -33 34 -42 85 -36 128 15 175 43 217 130 37 74 38
112 5 173 -21 38 -38 52 -98 83 -94 48 -98 49 -158 38 -70 -14 -109 -34 -164
-87 l-48 -45 6 -62 c4 -33 15 -94 26 -135 l20 -75 -48 -45 c-39 -38 -59 -49
-117 -63 -147 -36 -193 -66 -208 -140 -5 -23 -13 -28 -64 -38 -77 -16 -107
-28 -128 -51 -27 -30 -40 -23 -54 29 -8 26 -31 73 -53 105 -31 46 -40 71 -44
117 -7 74 8 118 63 182 49 57 48 57 31 79 -16 20 -160 114 -171 111 -4 -2 -14
2 -22 8 -7 7 -22 9 -34 5 -11 -3 -20 -3 -20 2 0 9 -195 16 -222 7 -9 -3 -22
-19 -27 -37 -12 -36 2 -82 74 -247 30 -69 39 -103 44 -178 4 -50 11 -95 14
-98 3 -4 39 -10 79 -14 80 -8 124 -27 207 -89 30 -23 62 -41 71 -41 13 0 22
-19 36 -81 11 -45 25 -84 32 -87 8 -2 50 8 94 23 70 24 96 28 197 29 96 0 124
-3 161 -20 52 -24 63 -36 79 -86 7 -21 16 -38 20 -38 16 0 64 -56 86 -101 27
-52 55 -153 55 -196 0 -36 -36 -146 -63 -191 -11 -18 -39 -46 -63 -63 -24 -16
-58 -48 -76 -69 -90 -114 -286 -126 -402 -27 -16 14 -26 29 -23 34 4 6 31 13
62 16 76 8 117 33 126 77 32 173 32 176 15 210 -9 18 -16 38 -16 44 0 17 -66
66 -88 66 -24 0 -38 -16 -47 -53 -10 -38 -48 -62 -136 -82 -95 -22 -125 -16
-134 27 -16 78 -33 97 -102 118 -83 26 -128 25 -191 -1 -55 -23 -67 -42 -57
-90 5 -23 1 -39 -19 -69 -37 -56 -35 -105 7 -152 17 -20 46 -43 64 -52 47 -24
50 -49 12 -105 -53 -76 -67 -83 -189 -97 -30 -4 -69 -15 -87 -26 -32 -19 -32
-19 -90 6 l-58 24 -3 -175 c-1 -97 -1 -178 1 -180 2 -2 67 3 143 12 76 8 186
20 244 26 58 6 166 19 240 29 158 22 488 57 610 64 107 7 344 32 475 51 55 8
136 20 180 26 44 6 85 16 91 22 7 7 26 48 43 92 40 102 76 130 164 130 53 0
61 -3 84 -30 21 -26 24 -38 21 -91 -3 -39 -13 -79 -30 -113 -21 -44 -24 -57
-15 -81 9 -24 6 -34 -21 -76 -18 -26 -32 -55 -32 -65 0 -9 -14 -30 -31 -47
-25 -24 -29 -34 -21 -49 8 -14 6 -23 -11 -41 -31 -33 -34 -125 -5 -162 18 -23
54 -49 70 -50 7 0 15 47 22 150 9 112 53 358 82 458 14 47 18 52 44 52 32 0
37 -10 42 -80 2 -27 7 -35 23 -35 18 0 21 9 26 101 3 55 11 109 17 120 18 33
100 95 153 115 54 21 212 25 304 8 28 -5 135 -22 239 -38 195 -31 335 -62 396
-90 54 -24 90 -51 90 -68 0 -16 -55 -15 -159 6 -67 13 -91 2 -91 -39 0 -22 -4
-28 -15 -24 -8 4 -12 10 -9 15 5 8 -13 11 -86 13 -20 1 -30 12 -52 56 -15 30
-27 65 -28 78 0 18 -5 22 -27 21 -16 -1 -21 -3 -12 -6 21 -5 13 -43 -8 -43
-16 0 -16 -8 3 -106 5 -29 3 -33 -25 -39 -50 -11 -382 -7 -421 4 -19 6 -47 11
-63 11 -20 0 -30 7 -37 26 -18 47 -30 15 -27 -76 3 -109 6 -113 112 -135 14
-3 25 -12 25 -20 0 -8 7 -15 15 -15 8 0 22 -14 31 -32 9 -18 23 -39 31 -47 22
-22 76 -49 89 -44 7 2 21 -11 33 -30 18 -29 30 -36 81 -47 33 -7 73 -10 89 -7
16 4 31 2 33 -3 2 -6 45 -11 97 -13 90 -4 95 -5 118 -33 12 -16 23 -23 23 -16
0 6 10 12 23 12 13 0 32 6 42 14 11 8 25 12 32 9 7 -3 13 -1 13 4 0 5 20 24
45 42 25 18 45 28 45 22 0 -5 -4 -13 -10 -16 -19 -12 -10 -35 14 -35 34 0 67
35 150 162 90 137 113 160 169 168 40 5 92 -10 92 -27 0 -5 3 -13 7 -18 4 -6
17 -40 29 -75 12 -36 27 -68 33 -72 6 -4 7 -10 4 -14 -4 -4 -3 -15 2 -25 7
-12 6 -20 -1 -24 -14 -10 -4 -47 26 -90 13 -20 22 -42 19 -50 -3 -7 4 -18 15
-25 12 -6 21 -18 21 -27 0 -8 10 -32 22 -51 12 -20 16 -32 10 -28 -16 10 -15
-5 3 -28 8 -11 15 -34 15 -51 0 -19 8 -39 20 -50 11 -10 20 -26 20 -35 0 -9 5
-21 12 -28 6 -6 9 -14 6 -17 -8 -8 -58 35 -58 51 0 8 -4 14 -8 14 -11 0 -43
56 -36 63 3 3 -1 16 -10 29 -9 12 -16 37 -16 55 0 26 -5 36 -25 43 -24 9 -35
30 -15 30 6 0 10 8 9 18 0 10 -3 12 -6 5 -3 -9 -10 -10 -24 -3 -10 6 -19 7
-20 3 -2 -29 -9 -66 -14 -82 -3 -11 -1 -22 4 -25 14 -9 41 -66 41 -87 0 -10
16 -33 35 -50 19 -18 35 -38 35 -44 0 -7 7 -18 15 -25 8 -7 15 -23 15 -36 0
-13 9 -28 20 -34 21 -11 43 -54 53 -107 5 -27 3 -33 -11 -33 -37 0 -122 31
-131 48 -6 9 -11 12 -11 6 0 -6 -11 -16 -25 -22 -15 -7 -22 -17 -19 -26 7 -19
-16 -32 -28 -15 -7 10 -8 8 -4 -7 4 -13 1 -21 -6 -22 -7 -1 -28 -5 -45 -8 -34
-7 -48 11 -15 19 9 3 -4 3 -29 0 -34 -4 -56 0 -87 16 -23 11 -56 21 -74 21
-24 0 -29 3 -18 10 11 7 1 15 -45 36 -33 15 -62 31 -65 35 -5 7 -86 4 -165 -5
-33 -3 -115 -47 -115 -61 0 -18 -30 -27 -46 -14 -35 29 8 -51 46 -84 16 -15
32 -39 36 -54 3 -16 10 -41 15 -57 11 -36 7 -42 -32 -50 -25 -5 -29 -9 -20
-19 12 -15 5 -27 -16 -27 -8 0 -21 -7 -29 -15 -20 -19 -34 -19 -34 0 0 8 -9
15 -20 15 -11 0 -20 -6 -20 -13 0 -18 -81 -50 -94 -37 -5 5 -16 5 -25 1 -9 -5
-38 -11 -65 -13 -31 -4 -52 -11 -58 -22 -5 -9 -17 -16 -26 -16 -9 0 -30 -9
-47 -20 -16 -11 -39 -20 -50 -20 -33 0 -75 -59 -75 -107 0 -23 5 -43 11 -45
16 -5 -8 -79 -23 -75 -6 1 -14 -9 -17 -22 -4 -13 -15 -25 -25 -27 -24 -3 -34
-16 -18 -21 6 -3 12 -11 12 -18 0 -24 -25 -23 -45 2 -18 22 -36 28 -99 32 -5
1 -1 10 8 20 16 18 16 22 2 50 -9 16 -16 39 -16 49 0 12 -9 22 -21 25 -19 5
-21 11 -16 52 3 34 2 44 -6 36 -21 -21 -47 -13 -47 14 0 14 -4 25 -9 25 -10 0
-14 33 -12 103 1 57 -14 60 -41 6 -14 -26 -18 -29 -19 -14 -1 11 -1 26 0 33 1
6 -3 12 -9 12 -5 0 -10 9 -10 20 0 11 -9 29 -20 40 -11 11 -20 30 -20 41 0 16
-5 20 -20 16 -13 -3 -20 0 -21 9 -1 8 -2 20 -3 27 0 6 -8 12 -16 12 -23 0 -37
55 -35 141 1 44 -2 81 -7 85 -4 3 -10 59 -14 125 -3 65 -7 121 -10 123 -10 11
-24 -59 -24 -124 0 -65 -3 -77 -26 -104 -23 -28 -30 -31 -63 -25 -20 4 -42 12
-50 18 -30 24 -328 -1 -351 -29 -10 -12 -3 -17 109 -75 27 -14 85 -37 111 -45
14 -4 47 -23 74 -42 45 -32 53 -35 109 -31 l60 3 13 -35 c7 -19 13 -53 13 -76
1 -32 -5 -47 -31 -73 -40 -40 -66 -51 -125 -51 -30 0 -53 -7 -70 -20 -42 -33
-96 -22 -188 37 -83 52 -134 71 -275 103 -185 41 -251 61 -258 78 -6 16 26 82
39 82 5 0 27 17 50 38 39 36 40 40 24 55 -18 19 -39 18 -190 -5 -144 -21 -331
-118 -420 -217 -22 -24 -68 -74 -102 -111 -60 -63 -77 -100 -53 -115 18 -11
63 19 95 65 37 53 56 60 77 28 34 -51 32 -66 -11 -104 -32 -30 -41 -45 -47
-83 -3 -25 -12 -68 -20 -95 -8 -27 -14 -63 -14 -78 0 -30 23 -82 46 -106 21
-20 17 -28 -22 -51 -35 -21 -35 -23 -33 -77 2 -48 0 -58 -18 -68 -49 -26 -77
-88 -52 -113 8 -8 4 -33 -16 -92 -23 -66 -27 -92 -22 -142 3 -34 12 -68 20
-76 25 -26 92 -32 141 -15 39 14 49 14 98 1 58 -16 70 -14 117 28 14 12 49 26
84 32 45 8 69 18 92 41 32 31 75 134 75 180 0 14 11 38 25 54 14 16 30 45 35
65 5 20 21 58 35 85 14 27 25 59 25 71 0 26 50 104 91 143 16 15 29 31 29 36
0 12 74 78 132 118 27 18 48 38 48 43 0 6 9 16 20 22 15 10 42 8 142 -12 67
-14 128 -23 135 -20 7 2 24 0 36 -6 18 -8 33 -7 63 6 38 17 38 17 16 28 -23
10 -23 11 10 25 60 26 178 54 178 42 0 -7 -22 -20 -40 -25 -3 0 -21 -10 -40
-20 l-35 -20 55 -3 c66 -4 76 -11 94 -71 8 -25 15 -40 15 -32 2 36 16 -6 17
-52 2 -48 34 -139 52 -151 5 -3 21 -38 37 -78 16 -40 35 -80 42 -89 7 -8 13
-25 13 -36 0 -11 7 -27 17 -34 9 -8 22 -29 30 -47 8 -20 18 -30 25 -26 7 5 9
0 6 -14 -5 -18 -2 -22 17 -22 33 0 39 -55 10 -89 l-20 -23 34 7 c21 5 31 4 27
-3 -3 -5 0 -9 7 -8 14 1 17 -5 17 -40 0 -14 -4 -22 -10 -19 -6 3 -7 -1 -4 -9
6 -15 12 -18 30 -15 12 1 24 -26 18 -42 -5 -19 22 -34 29 -16 2 7 7 9 11 5 13
-11 -18 -47 -44 -50 -21 -3 -24 -7 -22 -31 2 -18 -2 -29 -12 -33 -18 -7 -22
-30 -6 -36 12 -4 -9 -78 -22 -78 -4 0 -8 -18 -8 -40 0 -29 4 -40 15 -40 27 0
16 -15 -26 -34 -38 -19 -40 -21 -34 -56 3 -20 6 -55 7 -78 0 -23 7 -47 14 -53
8 -6 14 -17 14 -24 0 -18 -27 -38 -41 -30 -8 6 -7 10 2 16 9 5 10 11 4 18 -19
18 -56 -25 -62 -71 -3 -24 -12 -51 -21 -60 -12 -15 -13 -20 -1 -34 11 -14 11
-18 -3 -28 -9 -7 -16 -21 -15 -32 2 -15 -3 -18 -25 -16 -28 3 -31 -2 -44 -70
-4 -27 -3 -38 6 -38 8 0 11 -9 8 -24 -4 -18 2 -31 19 -45 13 -12 27 -21 32
-21 10 0 24 -27 26 -52 1 -10 8 -24 14 -32 9 -10 9 -15 1 -18 -7 -2 5 -35 30
-83 50 -97 55 -102 75 -85 8 7 19 10 23 6 4 -4 -4 -16 -17 -27 l-23 -19 23 0
c31 0 53 -15 45 -28 -4 -6 -2 -19 3 -29 5 -10 12 -30 15 -44 3 -14 14 -36 25
-48 11 -13 23 -32 26 -42 4 -11 10 -19 15 -19 20 0 40 -34 40 -68 0 -27 3 -33
10 -22 7 12 12 12 22 2 6 -6 9 -12 5 -12 -11 0 22 -73 44 -96 11 -12 23 -34
28 -50 5 -21 17 -32 40 -40 19 -6 41 -20 50 -31 22 -28 65 -37 85 -17 14 13
20 14 45 3 23 -10 27 -16 19 -27 -9 -10 -7 -17 5 -30 16 -15 18 -15 34 0 13
14 14 20 3 32 -10 13 -10 16 4 16 9 0 16 -7 16 -15 0 -11 11 -15 40 -15 22 0
40 -4 40 -9 0 -5 8 -12 18 -14 15 -4 15 -5 -1 -6 -27 -2 -15 -25 19 -35 74
-22 83 -28 98 -67 9 -21 13 -44 10 -52 -2 -7 0 -24 5 -38 9 -21 10 -22 11 -4
2 17 3 16 9 -5 9 -34 54 -36 59 -3 2 16 10 23 25 23 20 -1 21 -2 5 -14 -14
-10 -18 -28 -18 -80 0 -65 1 -66 26 -66 25 0 26 -2 20 -41 l-7 -42 31 7 c23 4
29 3 23 -7 -15 -24 -30 -77 -22 -77 5 0 9 5 9 11 0 5 5 7 12 3 8 -5 6 -11 -5
-19 -9 -7 -20 -29 -25 -50 -6 -32 -13 -40 -42 -50 -26 -8 -40 -22 -55 -53 -18
-38 -23 -42 -58 -42 -28 0 -44 -6 -58 -22 -15 -18 -18 -19 -13 -5 6 16 2 18
-27 15 -21 -2 -33 -8 -31 -16 1 -7 -9 -12 -27 -12 -25 0 -28 -3 -27 -30 1 -27
4 -30 36 -31 19 -1 50 0 69 1 18 1 37 -4 42 -11 6 -10 11 -10 23 0 11 9 16 10
16 2 0 -6 5 -11 10 -11 6 0 9 5 8 12 -2 6 6 14 16 16 14 3 17 0 13 -11 -4 -10
2 -17 19 -21 20 -5 24 -13 24 -41 0 -34 1 -35 40 -35 22 0 40 -5 40 -11 0 -5
-4 -7 -10 -4 -6 4 -10 -7 -10 -25 0 -18 4 -29 10 -25 6 3 10 -3 10 -13 0 -23
25 -46 40 -37 5 3 25 -5 43 -19 19 -15 39 -26 46 -26 6 0 11 -8 9 -17 -2 -14
7 -19 42 -24 25 -4 56 -5 69 -2 13 3 26 0 31 -7 5 -8 32 -15 70 -16 34 -1 64
-5 68 -8 3 -3 0 -6 -7 -6 -7 0 -9 -5 -6 -10 3 -6 15 -10 26 -10 10 0 19 -4 19
-10 0 -5 -7 -10 -15 -10 -27 0 -16 -17 18 -26 29 -9 33 -14 37 -54 5 -42 7
-45 31 -42 17 1 29 -3 33 -13 7 -19 86 -21 86 -3 0 8 6 6 17 -5 15 -15 15 -18
0 -34 -15 -17 -14 -19 12 -31 16 -7 31 -22 34 -32 3 -11 13 -20 22 -20 25 0
79 -60 65 -74 -15 -15 -12 -27 6 -24 9 2 21 -5 28 -15 9 -15 7 -21 -8 -32 -18
-13 -17 -14 8 -21 14 -3 26 -12 26 -19 0 -7 7 -18 15 -25 8 -7 15 -22 15 -33
0 -16 3 -18 12 -9 19 19 28 14 28 -17 0 -18 8 -34 20 -42 20 -14 20 -15 3 -59
-10 -25 -21 -47 -25 -48 -12 -5 -10 -80 2 -84 16 -5 14 -101 -4 -133 -9 -16
-16 -38 -16 -48 0 -10 -7 -29 -16 -43 -9 -13 -14 -27 -10 -31 3 -3 6 -1 6 5 0
20 21 13 46 -14 34 -36 31 -52 -13 -57 l-38 -4 38 -1 c39 -2 45 -10 25 -31
-11 -10 -9 -15 6 -26 10 -8 23 -16 27 -17 18 -6 -4 -48 -25 -49 -17 -1 -17 -2
-3 -6 9 -2 17 -13 17 -24 0 -10 7 -19 15 -19 8 0 20 -9 27 -20 13 -20 24 -20
1345 -20 1310 0 1333 0 1333 19 0 11 7 27 16 36 22 21 3 44 -31 37 -30 -5 -34
-32 -5 -32 11 0 20 -4 20 -10 0 -5 -18 -10 -40 -10 l-40 0 0 90 c0 85 -9 112
-24 73 -6 -15 -8 -15 -16 -3 -15 24 -12 30 15 30 14 0 25 5 25 11 0 5 -5 7
-11 4 -15 -10 -61 4 -54 15 3 6 19 10 36 10 16 0 29 5 29 10 0 6 -18 10 -41
10 -24 0 -38 4 -34 10 3 5 0 7 -8 4 -23 -8 -31 16 -11 30 30 23 11 46 -33 40
-26 -4 -34 -3 -24 4 9 7 10 12 2 16 -6 4 -11 20 -11 37 0 16 -4 29 -10 29 -5
0 -10 8 -10 18 -1 16 -1 16 -14 0 -18 -24 -32 -23 -39 4 -5 17 -9 19 -20 10
-17 -15 -27 -6 -27 25 0 17 6 23 23 23 20 0 23 4 19 29 -2 15 3 43 12 60 15
27 15 32 2 37 -21 8 -36 -3 -36 -27 0 -16 -7 -19 -50 -19 -38 0 -50 4 -50 15
0 8 -9 15 -20 15 -16 0 -20 7 -20 35 0 34 -12 46 -25 25 -8 -12 -55 -13 -55
-1 0 5 7 12 16 15 11 4 14 13 10 31 -6 23 -3 25 24 25 24 0 30 4 30 21 0 19
-5 21 -45 17 -37 -3 -46 0 -51 16 -3 10 -1 22 6 26 7 4 11 13 8 20 -3 9 -8 8
-20 -4 -9 -9 -21 -16 -26 -16 -5 0 -13 -12 -17 -27 l-7 -28 -10 27 c-8 24 -15
28 -44 25 -27 -2 -34 -6 -34 -23 0 -12 -7 -24 -15 -28 -20 -7 -19 -26 2 -26 9
0 13 -3 9 -7 -10 -10 -76 -10 -76 0 0 4 -13 7 -29 7 -24 0 -28 3 -24 20 8 30
22 35 38 14 9 -11 14 -14 15 -7 0 16 36 53 50 53 6 0 10 8 10 18 0 10 11 29
24 41 l25 23 6 -36 c8 -40 25 -39 25 1 0 16 7 27 20 30 25 7 28 53 4 53 -12 0
-14 7 -9 28 5 25 2 29 -28 40 -44 16 -47 15 -47 -8 0 -12 7 -20 18 -20 10 0
13 -3 6 -8 -6 -4 -14 -14 -17 -22 -4 -12 -6 -11 -6 3 -1 12 -9 17 -31 17 -28
0 -30 2 -30 40 0 25 5 40 13 40 6 1 1 10 -12 20 l-23 20 23 20 c13 10 36 19
52 20 27 0 36 13 17 25 -5 3 -9 36 -8 73 1 47 3 55 5 25 2 -23 10 -47 18 -53
21 -17 55 9 55 42 0 26 3 28 40 28 22 0 40 5 40 10 0 6 -12 10 -27 10 -58 0 2
20 67 22 64 2 64 2 13 5 -45 3 -53 7 -53 24 0 16 7 19 40 19 38 0 40 2 40 29
0 28 -3 30 -42 34 -24 2 -6 4 40 5 76 2 82 1 82 -18 0 -20 1 -20 26 -3 l27 17
-5 -32 c-4 -25 -1 -32 9 -27 8 3 17 5 19 5 2 0 4 5 4 11 0 7 12 23 27 37 l28
25 -28 10 c-33 11 -26 27 13 27 28 0 55 -20 28 -20 -9 -1 -9 -3 2 -9 19 -11
170 -2 170 10 0 5 18 9 40 9 51 0 51 -13 0 -30 l-40 -13 20 -22 c25 -27 25
-35 0 -35 -23 0 -25 -8 -6 -33 18 -23 25 -22 36 8 11 30 33 32 60 5 20 -20 50
-27 50 -12 0 4 -5 13 -12 20 -12 12 -10 13 15 16 9 1 13 238 15 1140 1 627 -1
1142 -5 1145 -13 10 -99 124 -114 151 -19 36 -20 51 -1 57 9 3 41 14 70 26
l52 21 0 1878 c0 1245 -3 1878 -10 1878 -5 0 -10 11 -10 25 0 14 5 25 10 25 6
0 10 42 10 105 0 63 -4 105 -10 105 -5 0 -10 9 -10 20 0 11 5 20 10 20 6 0 10
44 10 113 l0 112 -54 16 c-45 13 -59 14 -84 3 -17 -7 -56 -16 -86 -19 -31 -4
-59 -11 -62 -16 -3 -5 -23 -9 -45 -9 -39 0 -39 0 -39 -40 0 -29 4 -40 15 -40
8 0 15 8 15 17 0 13 3 14 11 6 19 -19 -14 -43 -60 -43 -22 0 -43 5 -46 10 -3
6 -1 10 4 10 6 0 11 7 11 15 0 22 -11 18 -37 -12 -25 -28 -28 -49 -13 -73 8
-12 13 -13 30 -2 11 6 40 12 65 12 45 0 50 -3 120 -62 18 -16 43 -28 56 -28
23 0 23 0 3 -14 -18 -13 -70 -15 -109 -5 -28 7 -116 -17 -159 -43 -43 -26 -57
-29 -130 -29 -79 0 -83 -1 -98 -27 -10 -17 -15 -48 -14 -82 1 -48 4 -56 26
-67 18 -8 38 -9 68 -2 28 6 49 6 60 -1 15 -9 15 -10 -5 -16 -13 -3 -23 -10
-23 -15 0 -5 -22 -9 -48 -9 -41 0 -52 -5 -78 -32 -17 -18 -36 -46 -44 -63 -25
-54 -29 -56 -63 -39 -35 19 -90 13 -118 -12 -10 -9 -21 -32 -25 -50 -8 -42 -9
-43 -81 -54 -45 -7 -64 -16 -85 -40 -16 -17 -28 -38 -28 -48 0 -28 28 -61 66
-77 19 -8 37 -22 40 -32 3 -10 9 -25 13 -33 5 -9 3 -20 -4 -27 -18 -17 -72
-43 -90 -43 -8 0 -15 -7 -15 -15 0 -8 -9 -15 -19 -15 -14 0 -21 9 -26 33 -3
17 -20 60 -38 94 -40 79 -63 83 -94 15 -72 -158 -67 -141 -47 -163 16 -18 28
-20 89 -17 l70 3 3 -43 c4 -57 42 -82 125 -82 l58 0 18 41 c17 36 17 46 5 85
-19 63 5 114 52 114 13 0 25 4 28 8 2 4 40 9 84 11 108 3 153 20 167 61 10 30
38 60 57 60 12 0 10 -34 -4 -48 -9 -9 -9 -12 -1 -12 8 0 9 -9 1 -32 -5 -18 -9
-52 -8 -75 0 -26 -8 -59 -21 -85 -14 -28 -18 -43 -10 -46 22 -7 2 -162 -21
-162 -5 0 -8 -18 -8 -39 0 -59 -20 -62 -21 -4 l-2 48 -7 -49 c-3 -28 -12 -52
-18 -54 -19 -6 -15 -62 4 -62 14 0 15 -2 3 -17 -13 -15 -14 -15 -17 0 -2 10
-8 17 -14 17 -13 0 -68 -56 -68 -69 0 -6 -7 -11 -15 -11 -7 0 -18 -7 -23 -16
-4 -8 -21 -23 -37 -33 -27 -15 -29 -22 -26 -64 2 -42 0 -47 -18 -47 -17 0 -21
-6 -21 -36 0 -45 -19 -64 -64 -64 -30 0 -36 -4 -36 -21 0 -18 -5 -20 -45 -18
-25 2 -50 -2 -57 -9 -9 -9 -6 -12 15 -12 25 0 27 -3 27 -40 l0 -40 -50 0 -50
0 0 -51 0 -52 -33 6 c-40 6 -89 -2 -81 -14 3 -5 20 -9 37 -10 31 0 31 -1 8
-10 -14 -5 -45 -9 -70 -8 -52 3 -91 -4 -174 -32 -32 -11 -74 -22 -95 -25 -62
-8 -90 -24 -106 -59 -9 -18 -16 -38 -16 -44 0 -6 -5 -11 -11 -11 -14 0 -6 34
27 118 27 65 29 89 23 266 -4 112 -5 116 -51 130 -25 7 -23 26 2 26 23 0 41
31 22 38 -7 2 -12 10 -12 17 0 8 -5 26 -11 42 -13 31 -18 73 -9 73 6 0 32 63
36 87 1 7 9 26 17 43 9 16 11 30 6 30 -5 0 -4 11 1 26 6 14 10 40 10 58 0 20
8 40 20 51 15 14 17 21 9 32 -14 16 -5 28 19 28 12 0 16 7 15 23 -2 13 3 22
11 22 11 0 14 13 14 48 0 51 2 65 21 131 7 23 10 50 7 58 -3 8 5 39 19 69 14
30 25 61 25 68 0 15 16 46 43 88 16 23 17 32 6 70 -24 90 -11 128 45 128 17 0
37 4 44 8 7 5 26 7 41 4 28 -4 29 -6 24 -41 -3 -20 -16 -59 -30 -88 -18 -36
-24 -60 -19 -78 13 -52 119 -67 149 -21 12 19 21 71 32 185 4 43 22 57 87 65
34 5 57 14 69 29 25 30 24 42 -7 83 -23 30 -25 38 -15 60 6 14 11 37 11 53 0
15 3 31 7 35 8 7 12 24 20 74 6 35 -19 66 -45 57 -18 -6 -82 21 -82 35 0 17
-51 80 -65 80 -6 0 -20 9 -30 20 -19 21 -45 27 -45 10 0 -7 -8 -6 -22 2 l-23
12 25 7 c23 6 23 7 3 8 -12 1 -25 6 -28 11 -3 6 -16 10 -28 10 -26 0 -60 26
-77 59 -10 20 -9 26 8 44 17 17 40 22 128 28 58 4 145 12 193 18 47 6 156 15
241 21 85 6 180 13 210 15 30 2 91 7 135 10 106 7 195 16 220 22 11 2 86 5
168 5 l147 1 0 90 0 89 -37 -5 c-21 -3 -67 -10 -103 -16 -36 -5 -92 -12 -125
-15 -33 -4 -134 -15 -225 -26 -91 -11 -230 -27 -310 -35 -80 -9 -230 -26 -335
-38 -200 -23 -418 -29 -433 -12 -5 6 -12 27 -15 48 -5 33 -3 37 16 37 14 0 31
13 46 35 13 19 30 35 37 35 8 0 14 6 14 13 1 6 21 28 46 47 60 47 57 71 -11
85 -58 12 -75 21 -75 41 0 8 -13 33 -30 56 -16 22 -30 47 -30 54 0 7 -3 14 -8
16 -4 2 -18 17 -30 33 -26 33 -83 94 -104 110 -98 76 -159 115 -183 115 -7 0
-27 13 -44 29 -25 23 -37 28 -66 24 -30 -4 -35 -2 -35 16 0 12 5 21 10 21 6 0
10 7 10 15 0 8 -4 15 -8 15 -5 0 -12 70 -15 156 -8 202 -9 204 -116 204 -43 0
-80 -2 -82 -4z m-1839 -1335 c0 -16 -12 -41 -20 -41 -4 0 -5 11 -2 25 4 23 22
36 22 16z m130 -36 c0 -3 -7 -22 -16 -43 -15 -35 -30 -142 -20 -142 2 0 12 22
21 50 21 62 30 69 29 22 -1 -21 -2 -74 -3 -119 l-1 -83 -27 0 c-22 0 -25 -2
-13 -10 11 -7 7 -10 -20 -11 -19 -1 -41 -1 -47 0 -7 1 -13 -7 -13 -18 0 -15 9
-21 39 -26 34 -6 40 -11 43 -33 2 -22 9 -27 33 -29 17 -1 40 -5 53 -8 15 -4
22 -1 22 10 0 8 8 15 19 15 13 0 20 9 24 33 3 17 8 40 12 50 5 11 2 17 -8 17
-19 0 -39 95 -26 128 5 13 9 40 9 60 0 71 12 113 36 128 20 14 29 14 81 1 32
-8 85 -18 118 -22 33 -4 82 -13 109 -21 27 -7 53 -11 58 -8 5 3 18 -3 29 -15
11 -12 31 -21 45 -21 17 0 27 -8 34 -25 11 -29 30 -34 30 -8 0 14 3 13 16 -5
8 -12 22 -22 30 -22 16 0 19 26 4 35 -5 3 -10 13 -10 21 0 8 5 14 10 14 6 0
10 -6 10 -14 0 -8 5 -16 11 -18 5 -2 11 -18 11 -35 1 -21 5 -30 14 -26 7 2 23
-3 36 -11 14 -9 28 -13 31 -9 4 3 7 -1 7 -10 0 -8 6 -22 13 -29 7 -7 16 -21
20 -30 4 -13 17 -18 45 -18 26 0 45 -7 57 -20 12 -13 31 -20 54 -20 20 0 45
-7 55 -15 11 -8 33 -15 49 -15 15 0 37 -5 49 -11 29 -16 67 -3 78 27 13 33 32
26 44 -15 6 -20 15 -31 24 -29 25 5 26 29 3 35 -15 4 -21 12 -19 27 2 16 11
22 41 24 27 2 37 -1 37 -12 0 -8 -6 -16 -12 -19 -7 -2 1 -8 17 -12 17 -5 35
-15 41 -24 9 -11 34 -16 95 -19 46 -1 88 -7 93 -12 7 -7 3 -10 -10 -10 -17 -1
-15 -4 10 -26 20 -18 31 -22 40 -14 15 12 26 3 26 -20 0 -22 89 -37 102 -18 5
9 8 10 8 1 0 -11 37 -29 53 -25 10 3 32 -19 39 -38 2 -8 17 -14 33 -15 25 0
31 -5 41 -41 7 -23 17 -51 24 -63 6 -12 13 -37 15 -57 3 -19 12 -49 21 -65 8
-17 12 -38 9 -48 -3 -9 1 -31 9 -47 8 -16 13 -46 11 -67 -3 -27 1 -40 11 -44
9 -3 12 -13 9 -23 -3 -9 4 -38 14 -64 25 -57 35 -238 21 -366 -5 -47 -13 -122
-16 -167 -4 -46 -10 -83 -14 -83 -4 0 -13 11 -20 25 -7 14 -17 25 -22 25 -4 0
-8 5 -8 10 0 6 -8 20 -19 31 -16 18 -31 56 -35 95 0 6 -9 18 -18 28 -10 10
-18 21 -18 26 0 5 -22 31 -48 58 -27 28 -56 66 -65 85 -14 29 -30 40 -99 70
-83 36 -253 72 -283 61 -9 -4 -28 -2 -43 4 -15 6 -55 13 -90 15 -52 4 -62 3
-58 -9 4 -11 -7 -14 -49 -15 -30 0 -69 -1 -86 -2 -17 0 -34 5 -39 12 -6 10
-11 6 -21 -15 -8 -16 -32 -38 -54 -50 -35 -18 -40 -25 -43 -59 -2 -22 -8 -45
-14 -52 -5 -7 -7 -26 -3 -43 5 -24 3 -30 -10 -30 -9 0 -41 -12 -71 -26 -38
-18 -63 -24 -83 -19 -26 5 -32 2 -46 -24 -8 -17 -20 -31 -26 -31 -6 0 -7 -4
-4 -10 3 -5 2 -10 -4 -10 -5 0 -13 4 -16 10 -3 5 -23 9 -43 9 -116 -1 -133 1
-128 10 3 5 -3 7 -14 4 -16 -4 -23 1 -33 26 -6 17 -17 31 -24 31 -7 0 -19 16
-28 35 -10 19 -26 37 -38 41 -12 4 -27 12 -34 19 -22 23 -43 98 -37 135 4 26
1 40 -10 49 -13 11 -15 24 -10 63 6 42 4 52 -16 73 -21 23 -135 75 -164 75 -7
0 -19 6 -25 14 -7 8 -27 17 -46 20 -19 4 -39 16 -45 27 -9 16 -21 19 -63 18
-29 0 -99 4 -157 10 -159 16 -180 15 -247 -15 -17 -8 -36 -14 -42 -14 -6 0
-11 -4 -11 -9 0 -18 -52 -71 -70 -71 -23 0 -84 -56 -75 -70 3 -5 -1 -13 -10
-16 -9 -4 -22 -19 -30 -35 -13 -25 -13 -28 0 -23 8 3 17 14 20 25 4 11 11 16
17 13 6 -4 6 -9 1 -13 -6 -3 -13 -21 -16 -39 -6 -30 -5 -33 16 -30 12 2 21 9
19 16 -1 7 3 22 9 33 8 16 14 18 24 9 9 -8 15 -8 20 0 3 5 24 10 46 10 21 0
39 4 39 9 0 16 43 20 69 6 26 -14 26 -14 3 -15 -15 0 -21 -4 -16 -11 5 -8 -1
-10 -19 -5 -14 3 -29 2 -32 -4 -3 -5 -26 -10 -50 -10 -30 0 -45 -5 -49 -16 -4
-9 -3 -20 0 -23 4 -3 9 0 11 7 3 6 20 12 38 12 29 0 32 -3 28 -22 -10 -39 -24
-48 -72 -48 -62 -1 -149 -31 -216 -75 -40 -27 -60 -49 -77 -85 -19 -40 -27
-48 -43 -43 -11 3 -21 7 -23 8 -4 4 36 195 79 375 68 286 64 274 129 413 11
24 20 51 20 60 0 9 4 18 9 21 4 3 14 32 21 65 16 78 22 85 163 219 22 20 56
61 77 92 21 31 44 61 51 67 29 23 90 53 109 53 18 0 19 3 8 20 -7 10 -9 22 -5
26 10 11 18 0 21 -30 1 -15 13 -36 25 -48 13 -11 29 -36 37 -54 7 -17 19 -34
26 -36 6 -2 13 -24 16 -49 2 -24 4 -52 5 -61 1 -10 9 -18 19 -18 9 0 22 -8 27
-17 8 -14 10 -9 11 24 0 33 4 43 20 48 11 3 20 13 20 22 0 17 56 187 72 216 8
16 28 24 28 12z m-174 -50 c7 -18 -15 -87 -25 -81 -4 3 -7 15 -5 28 1 13 3 33
3 46 1 25 19 30 27 7z m774 -15 l25 -20 -26 0 c-18 0 -28 6 -32 20 -6 25 1 25
33 0z m2058 -115 c38 -20 40 -21 48 -73 6 -37 3 -44 -24 -72 -28 -28 -36 -30
-100 -30 -86 0 -102 13 -79 62 8 18 19 51 22 73 4 22 12 46 18 53 13 17 68 10
115 -13z m-2808 -105 c0 -5 -4 -10 -9 -10 -6 0 -13 5 -16 10 -3 6 1 10 9 10 9
0 16 -4 16 -10z m240 -36 c0 -8 -5 -12 -10 -9 -6 4 -8 11 -5 16 9 14 15 11 15
-7z m1041 -7 c-10 -9 -11 -8 -5 6 3 10 9 15 12 12 3 -3 0 -11 -7 -18z m329 -7
c-20 -13 -40 -13 -40 0 0 6 12 10 28 10 21 0 24 -2 12 -10z m1196 -117 c-3 -3
-13 -3 -22 1 -16 6 -15 8 2 21 16 12 19 12 22 -1 2 -9 1 -18 -2 -21z m-196 7
c0 -5 -12 -10 -27 -9 -25 0 -26 1 -8 9 27 12 35 12 35 0z m114 -136 c8 -21 7
-22 -24 -27 -14 -2 -32 -6 -40 -10 -38 -14 -61 -14 -75 0 -28 28 -20 35 55 46
56 9 78 7 84 -9z m1211 -323 c3 -5 1 -12 -5 -16 -5 -3 -10 1 -10 9 0 18 6 21
15 7z m-335 -53 c0 -24 -26 -52 -35 -38 -3 5 -1 10 4 10 8 0 7 6 0 19 -7 10
-9 26 -5 36 5 14 9 15 21 5 8 -7 15 -21 15 -32z m-4070 -82 c0 -3 -4 -8 -10
-11 -5 -3 -10 -1 -10 4 0 6 5 11 10 11 6 0 10 -2 10 -4z m1525 -427 c-27 -11
-55 -11 -55 0 0 5 17 9 38 9 28 0 32 -2 17 -9z m319 -49 c4 -4 -2 -22 -14 -38
-12 -17 -19 -35 -16 -41 4 -6 0 -11 -8 -11 -9 0 -16 5 -16 10 0 6 -7 10 -15
10 -22 0 -18 -17 6 -23 12 -3 18 -10 14 -16 -10 -18 -39 -13 -53 9 -7 12 -18
17 -27 14 -9 -4 -23 0 -33 9 -9 8 -34 20 -55 27 -31 10 -44 9 -70 -3 -18 -8
-39 -17 -47 -20 -12 -4 -11 -6 3 -6 23 -1 22 -14 -5 -37 -24 -21 -74 -54 -82
-54 -8 0 2 78 13 99 22 40 75 70 141 80 71 10 250 4 264 -9z m-1032 -14 c36
-1 42 -10 26 -38 -25 -44 -39 -56 -59 -51 -19 5 -19 7 -3 24 10 11 15 20 13
22 -2 2 -17 11 -33 21 -22 14 -26 20 -15 27 8 5 21 6 29 2 8 -3 27 -7 42 -7z
m1385 -18 c42 -15 42 -28 1 -28 -17 0 -28 3 -25 7 4 3 -1 12 -11 19 -22 17 -8
17 35 2z m-1269 -14 c11 -19 4 -54 -9 -54 -5 0 -14 11 -19 25 -5 14 -14 25
-20 25 -5 0 -10 5 -10 10 0 17 48 11 58 -6z m1345 -8 c8 -8 31 -18 51 -22 21
-3 43 -12 49 -18 6 -7 22 -11 36 -9 15 2 20 0 13 -3 -7 -3 -17 -17 -22 -30
-10 -24 -43 -33 -55 -14 -3 6 -14 10 -25 10 -10 0 -20 7 -24 15 -3 10 -19 15
-43 15 -66 0 -85 34 -26 45 27 5 33 9 22 16 -8 5 -9 9 -2 9 6 0 18 -6 26 -14z
m-316 -28 c-3 -8 -6 -5 -6 6 -1 11 2 17 5 13 3 -3 4 -12 1 -19z m-1704 -48
c-3 -11 0 -33 5 -50 6 -16 9 -30 7 -30 -11 0 -67 39 -67 46 -1 5 -8 14 -17 21
-14 10 -13 13 9 22 43 17 69 14 63 -9z m142 10 c-3 -5 -13 -10 -21 -10 -8 0
-14 5 -14 10 0 6 9 10 21 10 11 0 17 -4 14 -10z m409 -57 c3 -7 1 -23 -4 -35
-5 -13 -9 -17 -9 -8 -1 8 -10 21 -21 28 -11 7 -20 17 -20 22 0 14 49 8 54 -7z
m-243 -6 c-6 -8 -8 -17 -4 -20 3 -4 1 -7 -5 -7 -14 0 -14 2 -6 24 3 9 11 16
16 16 7 0 6 -5 -1 -13z m2087 -83 c7 -65 1 -74 -42 -60 -20 6 -36 17 -36 24 0
17 -40 6 -58 -16 -10 -13 -9 -20 9 -37 16 -15 23 -17 26 -7 4 10 9 9 24 -4 10
-9 27 -14 39 -11 17 4 20 0 21 -26 2 -42 2 -34 -4 -102 -3 -33 -3 -49 0 -35 5
23 29 49 46 50 4 0 6 -15 3 -32 -5 -30 -12 -112 -21 -255 -2 -29 -9 -61 -15
-72 -5 -11 -10 -40 -10 -65 0 -25 -3 -46 -7 -46 -5 0 -9 -16 -11 -36 -1 -19
-14 -72 -29 -117 -15 -45 -26 -86 -25 -90 1 -4 -4 -18 -13 -30 -8 -12 -15 -29
-15 -38 0 -10 -12 -32 -26 -49 -15 -17 -24 -33 -21 -36 3 -3 -12 -37 -34 -74
-21 -38 -39 -72 -39 -74 0 -3 -14 -26 -31 -51 -25 -38 -30 -53 -26 -81 8 -48
-10 -82 -54 -105 -27 -13 -49 -37 -74 -80 -19 -33 -33 -65 -30 -70 4 -5 1 -17
-4 -26 -9 -16 -10 -16 -11 4 0 12 -6 23 -12 26 -10 3 -10 8 1 21 17 21 12 27
-17 19 -18 -4 -22 -13 -22 -44 0 -31 -4 -39 -18 -39 -10 0 -24 6 -31 13 -10
10 -12 9 -9 -5 1 -9 -5 -23 -14 -30 -9 -7 -19 -25 -20 -39 -2 -15 -9 -33 -15
-40 -6 -8 -14 -24 -17 -35 -4 -12 -15 -24 -25 -27 -24 -6 -61 -104 -61 -162 0
-34 -3 -43 -14 -39 -8 3 -16 -4 -19 -18 -9 -34 -77 -119 -90 -111 -6 4 -3 9 9
14 18 6 18 7 1 14 -10 4 -24 2 -33 -6 -13 -10 -17 -10 -26 2 -8 11 -9 11 -4
-3 3 -10 1 -20 -4 -23 -6 -4 -10 -15 -10 -26 0 -10 -6 -19 -13 -19 -18 0 -75
-28 -82 -41 -4 -5 -15 -9 -26 -9 -10 0 -19 -7 -19 -15 0 -19 -29 -65 -41 -65
-5 0 -6 6 -4 13 5 14 -38 67 -55 67 -5 0 -10 -3 -10 -6 0 -12 34 -64 42 -64 4
0 8 -7 8 -15 0 -24 -56 -19 -82 8 -13 12 -22 25 -20 30 3 9 4 9 -37 -3 -25 -7
-38 -6 -57 6 -13 9 -28 13 -34 9 -5 -3 -31 -8 -57 -10 -26 -2 -49 -9 -51 -15
-2 -5 -8 -7 -14 -4 -6 4 -6 9 3 14 9 6 0 20 -32 50 -41 38 -44 44 -43 90 0 35
-3 50 -13 50 -21 0 -15 17 8 23 15 4 20 11 16 21 -4 10 -1 16 8 16 8 0 15 5
15 10 0 6 5 10 11 10 6 0 9 -7 5 -15 -4 -10 1 -15 14 -15 11 0 20 -5 20 -11 0
-13 79 -10 98 4 6 5 12 20 12 33 0 17 6 24 20 24 11 0 30 10 41 21 18 18 20
28 14 68 -11 75 -7 102 16 119 40 28 -7 40 -103 26 -41 -6 -48 -4 -48 10 0 9
8 19 18 22 9 4 31 12 49 20 17 8 43 14 57 14 14 0 36 5 49 11 17 8 31 8 42 1
16 -9 16 -11 -9 -27 -25 -16 -25 -18 -9 -31 11 -8 13 -13 6 -14 -7 0 -13 -8
-13 -19 0 -14 6 -17 26 -13 15 3 29 13 31 23 3 11 12 19 20 19 9 0 13 6 10 14
-10 25 25 28 46 5 13 -14 22 -18 25 -11 6 19 29 14 35 -8 4 -17 12 -19 59 -16
59 5 138 34 138 52 0 10 10 23 64 86 13 15 29 53 31 71 0 4 7 12 15 18 13 8
12 12 -7 25 -19 13 -20 19 -11 45 11 33 -3 62 -27 53 -15 -6 -23 4 -50 68 -11
26 -34 57 -50 69 -17 13 -48 39 -71 60 -23 20 -51 40 -63 44 -12 4 -35 20 -52
36 -16 16 -34 29 -39 29 -5 0 -11 9 -15 20 -3 11 -24 29 -46 42 -40 22 -50 38
-24 38 8 0 12 6 9 13 -2 7 6 25 20 40 14 15 23 27 21 27 -2 0 14 18 36 40 22
22 46 40 53 40 7 0 16 13 19 29 3 16 14 36 23 45 14 15 15 21 4 41 -15 27 -5
70 10 45 7 -11 10 -8 15 13 4 15 11 27 16 27 15 0 10 30 -7 47 -8 9 -13 22
-10 29 3 8 9 21 12 29 4 10 0 15 -11 15 -14 0 -16 6 -11 28 4 15 3 22 -1 16
-4 -6 -16 -14 -26 -17 -14 -5 -20 -2 -24 13 -3 11 -10 20 -17 20 -18 0 -66 46
-66 64 0 19 21 21 38 4 9 -9 12 -8 13 8 1 10 1 22 0 27 -2 14 26 7 51 -13 14
-10 28 -17 31 -14 14 14 27 -8 17 -27 -9 -16 -7 -19 10 -19 12 0 30 5 41 10
15 8 19 8 17 -2 -2 -8 8 -14 27 -15 17 0 33 -2 38 -3 26 -8 75 -4 92 7 11 7
39 13 63 13 35 0 42 3 40 18 -2 12 5 18 27 20 44 4 85 23 85 38 0 8 10 14 25
14 14 0 28 7 31 15 4 8 14 15 24 15 11 0 22 5 25 10 3 6 1 10 -6 10 -7 0 -9 3
-6 6 4 4 21 1 39 -7 23 -9 33 -10 35 -2 3 7 11 9 19 6 8 -3 20 -1 27 5 6 5 20
8 29 7 10 -2 26 9 38 24 16 24 19 42 16 122 -1 52 -6 101 -10 111 -10 23 25
32 69 18 62 -20 122 31 108 91 -5 23 -4 23 22 -5 19 -19 29 -42 33 -72z
m-1762 -21 c-3 -3 -13 -2 -23 1 -17 7 -17 8 2 22 18 13 20 13 23 -1 2 -9 1
-19 -2 -22z m1233 -117 c10 -12 8 -17 -8 -25 -11 -6 -31 -11 -46 -11 -26 0
-26 0 -8 25 20 28 45 32 62 11z m645 -321 c9 -44 16 -122 17 -173 1 -72 4 -90
14 -82 14 12 25 3 25 -21 0 -24 52 -34 128 -24 103 13 506 32 602 28 30 -1 63
-2 73 -2 10 -1 15 -6 12 -12 -4 -6 2 -13 14 -16 12 -3 21 -9 21 -14 0 -5 7 -9
15 -9 13 0 15 -14 11 -87 -3 -47 -10 -91 -16 -97 -5 -5 -10 -16 -10 -23 0 -8
-14 -13 -39 -13 -34 0 -41 4 -55 34 -9 19 -16 39 -16 45 0 6 -11 13 -25 17
-14 3 -25 10 -25 14 0 5 -28 0 -62 -11 -41 -12 -69 -27 -81 -44 -10 -14 -24
-25 -31 -25 -14 0 -56 -88 -67 -140 -14 -66 -40 -175 -45 -192 -3 -10 -12 -18
-20 -18 -9 0 -13 -8 -11 -22 2 -13 2 -17 0 -10 -3 6 -9 12 -15 12 -11 0 -68
55 -68 65 0 4 -18 24 -39 44 -34 33 -40 45 -43 87 l-3 49 -16 -30 c-9 -16 -17
-43 -17 -58 1 -33 -6 -41 -27 -34 -8 4 -15 18 -15 32 0 18 -5 25 -19 25 -13 0
-21 8 -23 23 -2 14 -11 23 -27 25 -30 5 -48 -12 -33 -31 9 -11 7 -18 -11 -35
-43 -40 -48 -50 -37 -72 5 -11 15 -29 20 -40 6 -11 10 -27 10 -35 0 -8 5 -15
12 -15 9 0 9 -3 0 -12 -8 -8 -8 -15 -1 -24 7 -8 6 -14 -1 -19 -7 -4 -14 2 -17
14 -6 23 -28 28 -36 9 -4 -8 -8 -4 -12 10 -4 12 -13 22 -20 22 -7 0 -19 7 -26
16 -12 14 -14 14 -20 -3 -9 -24 1 -83 17 -107 7 -10 10 -25 7 -33 -4 -11 1
-13 23 -7 37 9 36 9 58 -1 11 -5 26 -4 37 3 13 8 19 8 22 -1 3 -9 10 -9 30 0
15 7 40 10 57 7 18 -4 36 -1 45 6 12 10 19 10 27 2 7 -7 20 -12 30 -12 9 0 22
-8 27 -17 8 -13 13 -15 18 -6 9 12 162 21 179 10 5 -3 8 -26 6 -51 -3 -37 -8
-46 -23 -46 -15 0 -19 -7 -19 -40 0 -33 -3 -40 -20 -40 -16 0 -20 -7 -20 -36
0 -45 -19 -64 -64 -64 -33 0 -36 -2 -36 -30 0 -25 -4 -30 -23 -30 -13 0 -28
-5 -35 -12 -7 -7 -31 -11 -56 -9 -37 2 -48 -2 -74 -28 -17 -17 -40 -31 -51
-31 -18 0 -21 -6 -21 -40 0 -22 5 -40 10 -40 6 0 10 -18 10 -40 0 -22 5 -40
10 -40 6 0 10 -18 10 -40 0 -22 -4 -40 -10 -40 -5 0 -10 -18 -10 -40 0 -34 -3
-40 -22 -40 -12 0 -30 -7 -40 -17 -17 -15 -18 -15 -18 0 0 10 -4 17 -10 17 -5
0 -10 -18 -10 -40 0 -38 -2 -40 -30 -40 -21 0 -30 -5 -31 -17 -1 -17 -2 -17
-6 0 -6 22 -63 24 -63 2 0 -8 -4 -15 -10 -15 -19 0 -50 -40 -50 -64 0 -14 -7
-26 -17 -30 -10 -3 -36 -17 -58 -30 -48 -30 -73 -32 -82 -8 -9 23 -26 33 -34
20 -9 -14 -39 7 -39 26 0 6 -9 18 -20 26 -24 18 -26 47 -3 72 15 17 15 18 0
18 -11 0 -17 8 -17 24 0 18 -4 23 -17 20 -20 -5 -43 34 -43 72 0 37 -12 84
-21 79 -4 -3 -11 0 -15 6 -4 8 -3 9 4 5 8 -5 12 0 12 13 0 13 -7 21 -17 22
-11 0 -13 3 -5 6 6 2 12 14 12 24 0 11 4 18 9 15 13 -9 61 41 61 63 0 11 5 23
10 26 6 4 8 16 4 27 -4 14 -2 18 5 14 6 -4 11 -4 11 1 0 4 14 23 31 41 24 25
35 51 46 100 7 37 27 93 43 125 17 31 30 63 30 70 0 7 9 18 20 25 11 7 20 19
20 27 0 18 16 20 24 3 3 -9 9 -7 18 7 17 27 17 30 21 201 3 133 6 156 25 188
12 20 19 42 16 50 -3 9 3 17 15 21 12 3 21 15 21 25 0 15 28 31 64 34 11 1 40
75 32 83 -3 3 -24 1 -47 -6 -49 -15 -63 -6 -31 19 13 11 24 30 26 42 1 13 7
32 13 43 5 11 8 41 7 67 -2 26 1 59 6 72 7 19 5 30 -10 48 -13 17 -16 29 -9
39 5 8 7 26 4 40 -3 14 0 39 6 55 7 16 13 36 14 46 3 22 15 52 19 47 2 -2 11
-40 20 -84z m659 -12 c-7 -2 -19 -2 -25 0 -7 3 -2 5 12 5 14 0 19 -2 13 -5z
m-1896 -315 c4 -54 -9 -41 -15 15 -2 23 0 38 4 34 5 -4 10 -27 11 -49z m2113
-253 c0 -8 -4 -15 -10 -15 -5 0 -10 7 -10 15 0 8 5 15 10 15 6 0 10 -7 10 -15z
m-3011 -66 c-25 -16 -33 -9 -13 10 10 10 21 14 23 8 2 -5 -3 -13 -10 -18z
m-1032 -108 c-12 -25 -12 -25 -15 -2 -2 12 -1 30 3 39 5 13 8 14 15 3 5 -8 3
-25 -3 -40z m-1379 -3 c-15 -17 -28 -34 -28 -39 0 -13 -32 -10 -52 5 -24 18
-23 31 5 49 27 18 55 24 83 19 20 -3 19 -5 -8 -34z m4762 -53 c0 -1 -6 -8 -14
-14 -11 -9 -15 -7 -19 8 -3 14 0 17 14 14 11 -3 19 -7 19 -8z m-30 -70 c0 -9
-9 -15 -21 -15 -18 0 -19 2 -9 15 7 8 16 15 21 15 5 0 9 -7 9 -15z m-2067 -2
c-7 -2 -19 -2 -25 0 -7 3 -2 5 12 5 14 0 19 -2 13 -5z m301 -22 c3 -5 -8 -11
-24 -13 -30 -5 -41 6 -17 15 20 9 35 8 41 -2z m1713 -27 c-3 -3 -12 -4 -19 -1
-8 3 -5 6 6 6 11 1 17 -2 13 -5z m-2892 -194 c3 -5 1 -10 -4 -10 -6 0 -11 5
-11 10 0 6 2 10 4 10 3 0 8 -4 11 -10z m625 -71 c0 -18 -2 -19 -15 -9 -8 7
-15 16 -15 21 0 5 7 9 15 9 9 0 15 -9 15 -21z m68 3 c23 -13 27 -20 17 -29 -7
-6 -18 -7 -25 -3 -10 6 -8 9 6 13 10 2 2 5 -18 6 -36 1 -46 9 -31 24 10 11 20
8 51 -11z m852 -42 c0 -5 -4 -10 -10 -10 -5 0 -10 5 -10 10 0 6 5 10 10 10 6
0 10 -4 10 -10z m-789 -19 c-8 -5 -20 -7 -28 -4 -21 8 -15 13 15 13 20 0 23
-3 13 -9z m429 -41 c0 -5 -2 -10 -4 -10 -3 0 -8 5 -11 10 -3 6 -1 10 4 10 6 0
11 -4 11 -10z m110 -230 c-8 -5 -22 -9 -30 -9 -10 0 -8 3 5 9 27 12 43 12 25
0z m-686 -17 c8 -24 97 -30 119 -9 13 13 16 12 25 -10 16 -33 30 -30 34 9 3
24 6 28 12 15 5 -11 -1 -35 -18 -68 -14 -28 -26 -58 -26 -65 0 -8 -10 -21 -22
-29 -12 -9 -17 -16 -9 -16 27 0 3 -25 -30 -30 -19 -3 -33 -10 -32 -16 1 -5 -7
-21 -18 -34 -14 -19 -19 -21 -19 -8 0 21 -34 32 -59 19 -14 -8 -20 -8 -23 1
-4 10 -10 9 -29 -2 -29 -18 -42 -18 -91 -1 -32 11 -41 10 -77 -9 l-41 -21 -12
26 c-6 14 -18 25 -26 25 -10 0 -13 7 -9 22 8 28 -18 58 -50 58 -12 0 -23 3
-24 8 -7 46 -4 84 8 93 7 6 13 18 13 25 0 10 8 13 23 10 12 -3 52 -8 90 -11
37 -4 67 -10 67 -15 0 -5 17 -10 38 -12 24 -2 36 -8 34 -16 -1 -8 2 -11 8 -7
12 7 50 -12 67 -34 11 -14 12 -12 13 12 0 15 -5 27 -11 27 -5 0 -7 5 -3 12 6
9 9 9 12 0 8 -24 22 -11 22 21 0 19 3 37 7 40 12 13 32 7 37 -10z m483 -139
c-3 -3 -12 -4 -19 -1 -8 3 -5 6 6 6 11 1 17 -2 13 -5z m-47 -8 c0 -2 -7 -9
-15 -16 -13 -11 -14 -10 -9 4 5 14 24 23 24 12z m981 -50 c-14 -16 -54 -29
-45 -14 3 5 16 13 28 18 29 12 30 12 17 -4z m-2083 -134 c15 -27 16 -78 1 -87
-17 -11 -22 2 -21 51 0 37 -3 47 -18 51 -15 4 -16 8 -7 18 13 13 22 6 45 -33z
m66 -23 c-10 -16 -24 -9 -24 12 0 18 2 19 15 9 8 -7 12 -16 9 -21z m2281 11
c3 -5 1 -10 -4 -10 -6 0 -11 5 -11 10 0 6 2 10 4 10 3 0 8 -4 11 -10z m-2388
-62 c-3 -8 -6 -5 -6 6 -1 11 2 17 5 13 3 -3 4 -12 1 -19z m93 -15 c-11 -17
-11 -17 -6 0 3 10 6 24 7 30 0 9 2 9 5 0 3 -7 0 -20 -6 -30z m2710 -3 c0 -5
-5 -10 -11 -10 -5 0 -7 5 -4 10 3 6 8 10 11 10 2 0 4 -4 4 -10z m-50 -40 c0
-4 -7 -13 -15 -20 -18 -15 -20 -76 -2 -83 7 -4 6 -6 -4 -6 -9 -1 -20 6 -23 15
-3 9 -12 14 -19 11 -8 -3 -14 4 -15 19 -1 17 2 22 13 18 10 -4 15 0 15 15 0
27 20 50 37 44 7 -3 13 -9 13 -13z m-2730 -30 c-9 -50 -15 -57 -35 -40 -19 16
-19 39 0 46 8 4 15 12 15 20 0 8 6 14 14 14 10 0 12 -9 6 -40z m80 1 c0 -16 3
-43 6 -60 5 -24 3 -31 -10 -31 -9 0 -16 8 -16 20 0 15 -7 20 -25 20 -31 0 -31
5 -2 47 27 41 47 43 47 4z m2555 -60 c-6 -5 -25 10 -25 20 0 5 6 4 14 -3 8 -7
12 -15 11 -17z m-2645 -105 c0 -3 -4 -8 -10 -11 -5 -3 -10 -1 -10 4 0 6 5 11
10 11 6 0 10 -2 10 -4z m-89 -73 c-9 -16 -10 -14 -11 12 0 21 3 26 11 18 8 -8
8 -16 0 -30z m59 -39 c0 -8 -4 -14 -10 -14 -5 0 -10 9 -10 21 0 11 5 17 10 14
6 -3 10 -13 10 -21z m2920 -308 c0 -3 -4 -8 -10 -11 -5 -3 -10 -1 -10 4 0 6 5
11 10 11 6 0 10 -2 10 -4z m-36 -42 c31 -12 16 -29 -24 -29 -24 0 -40 4 -40
11 0 20 35 29 64 18z m49 -34 c-7 -26 22 -70 47 -70 11 0 24 -9 30 -20 6 -12
21 -20 36 -20 21 0 25 -4 22 -22 -2 -12 -14 -28 -28 -35 -22 -11 -35 -38 -43
-92 -1 -8 11 -18 27 -22 29 -8 54 -1 29 8 -22 8 -14 33 13 43 36 14 39 13 54
-14 7 -14 18 -22 24 -20 14 5 36 -36 36 -66 0 -14 7 -20 23 -20 20 0 20 -1 -7
-15 -15 -8 -36 -15 -45 -15 -26 0 -61 -29 -61 -51 0 -11 -7 -22 -15 -25 -8 -4
-15 -12 -15 -20 0 -17 -16 -18 -26 -2 -4 6 0 16 9 23 10 7 17 15 17 19 0 11
-45 6 -62 -8 -24 -18 -23 -38 4 -55 l22 -14 -24 -19 c-19 -15 -22 -23 -14 -36
16 -24 -46 -62 -113 -69 -35 -4 -53 -10 -53 -19 0 -22 -16 -16 -49 17 -33 32
-39 49 -18 49 6 0 20 12 30 26 l19 25 -39 -3 c-31 -2 -39 -7 -41 -25 -2 -13
-9 -23 -15 -23 -7 0 -22 -3 -35 -6 -17 -5 -21 -3 -17 8 3 8 -1 21 -10 28 -8 7
-15 21 -15 31 0 11 -4 19 -8 19 -23 0 -109 -35 -120 -48 -9 -12 -15 -13 -24
-4 -9 9 -7 16 7 32 10 11 13 20 7 20 -7 0 -12 10 -12 23 0 13 -5 28 -11 34
-12 12 4 53 21 53 6 0 10 11 10 25 0 23 4 25 40 25 l40 0 0 54 c0 30 5 58 10
61 6 3 10 15 10 26 0 14 7 19 30 19 17 0 30 -5 30 -11 0 -8 5 -7 16 2 12 10
15 25 12 61 -5 44 -2 51 23 73 16 13 29 33 29 44 0 18 6 21 39 21 22 0 44 -6
51 -15 13 -16 42 -20 54 -7 4 4 13 7 19 7 7 0 13 10 15 23 2 12 7 20 12 17 4
-3 6 -14 3 -25z m-383 -280 c0 -5 -4 -10 -10 -10 -5 0 -10 5 -10 10 0 6 5 10
10 10 6 0 10 -4 10 -10z m762 -42 c-9 -9 -12 -7 -12 12 0 19 3 21 12 12 9 -9
9 -15 0 -24z m-12 -64 c0 -8 -5 -12 -10 -9 -6 4 -8 11 -5 16 9 14 15 11 15 -7z
m-133 -50 c-3 -3 -12 -4 -19 -1 -8 3 -5 6 6 6 11 1 17 -2 13 -5z m-642 -144
c3 -5 -3 -10 -15 -10 -12 0 -18 5 -15 10 3 6 10 10 15 10 5 0 12 -4 15 -10z
m0 -45 c0 -10 -6 -20 -12 -22 -8 -3 -13 5 -13 22 0 17 5 25 13 23 6 -3 12 -13
12 -23z m115 0 c0 -8 -4 -15 -10 -15 -5 0 -10 7 -10 15 0 8 5 15 10 15 6 0 10
-7 10 -15z m118 -122 c-10 -2 -18 -9 -18 -14 0 -6 -5 -7 -11 -3 -14 8 8 24 31
23 11 -1 10 -3 -2 -6z m-2163 -171 c-3 -3 -11 0 -18 7 -9 10 -8 11 6 5 10 -3
15 -9 12 -12z m166 -80 c-7 -2 -18 1 -23 6 -8 8 -4 9 13 5 13 -4 18 -8 10 -11z
m191 -84 c-9 -9 -15 -9 -24 0 -9 9 -7 12 12 12 19 0 21 -3 12 -12z m-168 -37
c3 -5 -5 -11 -19 -13 -17 -4 -25 -1 -25 8 0 15 36 19 44 5z m276 -1 c0 -5 -5
-10 -11 -10 -5 0 -7 5 -4 10 3 6 8 10 11 10 2 0 4 -4 4 -10z m-220 -4 c0 -3
-4 -8 -10 -11 -5 -3 -10 -1 -10 4 0 6 5 11 10 11 6 0 10 -2 10 -4z m1022 -194
c-2 -7 -11 -11 -19 -8 -8 3 -19 6 -24 6 -6 0 -8 3 -6 8 9 13 55 8 49 -6z m272
9 c4 -5 -3 -7 -14 -4 -23 6 -26 13 -6 13 8 0 17 -4 20 -9z m-374 -22 c15 18
20 19 20 7 0 -12 10 -16 40 -16 45 0 54 -20 18 -38 -23 -10 -22 -11 5 -11 16
-1 30 5 34 15 3 8 16 20 29 25 13 4 24 15 24 24 0 10 10 15 30 15 20 0 30 -5
30 -15 0 -8 7 -15 15 -15 8 0 15 7 15 15 0 8 5 15 10 15 6 0 10 -18 10 -40 0
-32 4 -40 19 -40 16 0 18 -9 19 -87 0 -69 4 -90 16 -98 11 -7 20 -5 33 8 16
16 16 17 -4 17 -20 0 -33 23 -33 63 0 21 26 23 34 1 5 -13 9 -13 31 3 13 10
25 24 25 31 0 6 9 12 19 12 11 0 23 5 26 10 12 20 35 10 35 -15 0 -16 -6 -25
-15 -25 -11 0 -15 -11 -15 -39 0 -22 -5 -41 -12 -44 -9 -3 -6 -12 10 -28 17
-18 25 -21 31 -11 4 7 15 10 24 7 21 -9 31 -37 15 -46 -9 -6 -8 -13 6 -28 23
-25 36 -27 36 -4 0 13 3 14 12 5 8 -8 8 -15 -1 -26 -7 -8 -10 -20 -7 -25 4 -5
-7 -24 -24 -41 -26 -27 -29 -34 -18 -53 8 -16 13 -18 16 -8 15 46 109 95 119
64 3 -7 0 -13 -6 -13 -6 0 -11 -7 -11 -15 0 -8 8 -15 17 -15 14 0 15 -2 4 -12
-11 -10 -14 -10 -18 0 -7 19 -31 14 -38 -7 -3 -11 -15 -23 -26 -26 -22 -7 -26
-35 -4 -35 10 0 15 -11 15 -35 0 -19 8 -44 17 -55 21 -24 33 -26 33 -5 0 8 -7
15 -15 15 -11 0 -15 11 -15 40 0 29 4 40 15 40 8 0 15 -4 15 -9 0 -6 23 -11
52 -13 47 -3 52 -6 59 -30 4 -16 4 -28 0 -28 -4 0 -14 -12 -21 -26 -12 -22
-12 -27 0 -35 13 -8 13 -10 0 -19 -11 -7 -4 -10 28 -10 40 0 54 11 32 25 -23
14 -7 22 40 17 33 -3 50 -1 50 7 0 6 5 11 10 11 6 0 10 -16 8 -35 -2 -41 13
-61 39 -50 10 5 24 7 31 6 6 -1 12 3 12 9 0 5 -6 10 -12 11 -10 0 -10 2 0 6 6
2 12 13 12 24 0 12 7 19 20 19 13 0 20 -7 20 -20 0 -11 5 -20 11 -20 8 0 8 -5
-1 -15 -7 -8 -9 -15 -4 -15 5 0 17 -12 27 -25 15 -22 16 -25 2 -25 -8 0 -15 7
-15 15 0 8 -7 15 -15 15 -20 0 -19 -6 5 -30 12 -12 33 -20 55 -20 19 0 35 -5
35 -11 0 -6 9 -8 20 -4 32 10 63 -4 57 -26 -3 -10 -1 -19 5 -19 5 0 6 -4 3
-10 -10 -16 -45 -12 -63 7 -16 16 -17 15 -21 -2 -2 -11 2 -21 8 -23 6 -2 11
-15 11 -28 0 -13 6 -24 13 -24 8 0 9 -2 1 -8 -7 -4 -13 -16 -15 -27 -3 -16
-13 -21 -52 -23 -38 -3 -47 0 -47 13 0 9 -5 13 -10 10 -8 -5 -8 -11 0 -20 6
-8 10 -29 8 -47 l-3 -33 -26 28 c-15 15 -31 27 -38 27 -14 0 -14 13 0 27 8 8
8 13 0 17 -6 4 -11 0 -11 -8 0 -10 -9 -16 -25 -16 -20 0 -27 -6 -32 -30 -6
-33 -23 -51 -23 -26 0 9 -8 16 -17 16 -18 0 -53 28 -53 42 0 4 7 8 15 8 8 0
15 -7 15 -15 0 -8 7 -15 15 -15 8 0 15 7 15 15 0 8 7 15 15 15 9 0 15 10 15
26 0 17 -4 24 -12 21 -10 -3 -12 8 -10 44 4 51 3 53 -22 43 -11 -4 -16 -19
-16 -50 0 -24 -4 -44 -10 -44 -5 0 -10 20 -10 45 0 26 -5 45 -11 45 -6 0 -9
17 -7 43 l3 42 -42 3 c-38 3 -43 6 -43 28 0 21 -4 24 -40 24 l-40 0 -2 -72
c-1 -48 -3 -59 -5 -30 -4 39 -6 42 -33 42 -27 0 -29 -3 -33 -42 -3 -34 -4 -30
-5 20 -2 49 1 62 13 62 10 0 15 10 15 30 0 18 -6 33 -15 36 -8 4 -15 12 -15
20 0 10 -12 14 -39 14 -36 0 -40 -3 -44 -27 -2 -16 -3 2 0 40 l4 67 -48 0
c-26 0 -55 5 -63 10 -12 8 -11 10 8 10 12 0 22 5 22 10 0 6 18 10 40 10 22 0
40 3 40 8 0 4 3 17 6 30 5 18 2 22 -15 22 -11 0 -21 4 -21 10 0 6 -9 6 -26 0
-36 -14 -51 -13 -36 2 18 18 15 68 -3 68 -9 0 -15 -9 -15 -25 0 -19 -5 -25
-21 -25 -11 0 -27 -7 -35 -15 -9 -8 -11 -15 -5 -15 16 0 14 -93 -3 -125 -18
-34 -52 -58 -68 -49 -9 6 -6 10 8 14 18 4 20 9 12 30 -7 20 -11 22 -18 10 -9
-13 -10 -13 -10 0 0 10 -9 6 -25 -12 -28 -33 -29 -33 -56 -10 -35 29 -39 54
-13 79 18 16 24 33 24 63 0 22 -5 40 -11 40 -6 0 -8 -8 -4 -19 5 -17 1 -19
-39 -18 -42 2 -45 4 -51 34 -7 39 -24 52 -37 28 -7 -12 -13 -14 -17 -6 -8 12
-69 -12 -83 -33 -4 -7 -16 -2 -32 14 -31 28 -32 37 -8 42 14 3 13 8 -11 30
-16 15 -43 30 -60 33 -58 12 -67 16 -67 34 0 10 -9 30 -21 45 -17 22 -19 29
-9 42 8 8 21 12 31 9 15 -5 19 -1 19 20 0 28 11 29 64 9 10 -4 16 -1 16 9 0
10 -8 13 -25 9 -17 -3 -25 0 -25 10 0 26 22 37 69 34 25 -2 31 -1 14 1 -47 6
-41 23 10 24 27 1 33 3 16 6 -16 2 -29 12 -32 24 -6 23 18 50 38 43 8 -4 15
-1 15 6 0 7 9 2 20 -11 l20 -24 20 24z m-220 -24 c0 -8 -4 -15 -10 -15 -5 0
-10 7 -10 15 0 8 5 15 10 15 6 0 10 -7 10 -15z m567 -7 c-3 -8 -6 -5 -6 6 -1
11 2 17 5 13 3 -3 4 -12 1 -19z m109 -19 c3 -5 -4 -9 -14 -9 -11 0 -22 6 -25
14 -4 10 0 12 14 9 11 -3 22 -9 25 -14z m-626 -19 c0 -5 -4 -10 -10 -10 -5 0
-10 5 -10 10 0 6 5 10 10 10 6 0 10 -4 10 -10z m-213 -42 c-3 -7 -5 -2 -5 12
0 14 2 19 5 13 2 -7 2 -19 0 -25z m183 12 c0 -5 -4 -10 -10 -10 -5 0 -10 5
-10 10 0 6 5 10 10 10 6 0 10 -4 10 -10z m796 -40 c15 0 17 -9 8 -34 -8 -20
-24 -21 -24 -2 0 7 -9 16 -21 19 -20 5 -20 6 -2 27 15 17 19 18 21 5 2 -8 10
-15 18 -15z m-846 -10 c0 -5 -4 -10 -9 -10 -6 0 -13 5 -16 10 -3 6 1 10 9 10
9 0 16 -4 16 -10z m928 -1 c-2 -6 -8 -10 -13 -10 -5 0 -11 4 -13 10 -2 6 4 11
13 11 9 0 15 -5 13 -11z m-981 -26 c-3 -3 -11 -2 -17 2 -9 6 -9 10 1 16 14 8
27 -7 16 -18z m838 -3 c0 -8 -8 -16 -17 -18 -13 -2 -18 3 -18 18 0 15 5 20 18
18 9 -2 17 -10 17 -18z m-974 -43 c-16 -16 -20 -5 -8 23 9 22 11 23 14 6 3
-10 0 -23 -6 -29z m109 18 c10 -12 10 -15 -4 -15 -9 0 -16 7 -16 15 0 8 2 15
4 15 2 0 9 -7 16 -15z m1066 -12 c-10 -10 -19 5 -10 18 6 11 8 11 12 0 2 -7 1
-15 -2 -18z m-1357 -10 c0 -25 -1 -25 -8 -8 -5 11 -7 23 -4 28 8 14 13 7 12
-20z m1205 11 c4 -9 4 -19 1 -22 -3 -3 -5 0 -5 6 0 7 -9 12 -21 12 -11 0 -17
5 -14 10 10 16 32 12 39 -6z m46 -54 c0 -5 -9 -10 -19 -10 -11 0 -23 5 -26 10
-4 6 5 10 19 10 14 0 26 -4 26 -10z m-1295 -20 c3 -5 1 -10 -4 -10 -6 0 -11 5
-11 10 0 6 2 10 4 10 3 0 8 -4 11 -10z m-64 -53 c-13 -13 -26 -3 -16 12 3 6
11 8 17 5 6 -4 6 -10 -1 -17z m1569 3 c0 -5 -4 -10 -10 -10 -5 0 -10 5 -10 10
0 6 5 10 10 10 6 0 10 -4 10 -10z m40 0 c0 -5 -4 -10 -10 -10 -5 0 -10 5 -10
10 0 6 5 10 10 10 6 0 10 -4 10 -10z m-1935 -20 c3 -5 1 -10 -4 -10 -6 0 -11
5 -11 10 0 6 2 10 4 10 3 0 8 -4 11 -10z m915 -32 c0 -16 -3 -19 -11 -11 -6 6
-8 16 -5 22 11 17 16 13 16 -11z m-631 3 c12 -8 13 -12 1 -25 -12 -15 -14 -15
-31 0 -11 10 -19 21 -19 26 0 11 31 10 49 -1z m-163 -46 c2 -22 1 -23 -12 -11
-8 8 -11 22 -8 31 8 20 17 12 20 -20z m174 -29 c0 -3 -4 -8 -10 -11 -5 -3 -10
-1 -10 4 0 6 5 11 10 11 6 0 10 -2 10 -4z m700 -6 c0 -5 -2 -10 -4 -10 -3 0
-8 5 -11 10 -3 6 -1 10 4 10 6 0 11 -4 11 -10z m-660 -29 c0 -6 -4 -13 -10
-16 -5 -3 -10 1 -10 9 0 9 5 16 10 16 6 0 10 -4 10 -9z m1646 -2 c3 -6 -1 -18
-10 -27 -15 -15 -16 -14 -16 11 0 27 13 36 26 16z m74 -25 c0 -8 -4 -14 -10
-14 -5 0 -10 9 -10 21 0 11 5 17 10 14 6 -3 10 -13 10 -21z m-1776 1 c4 -10
-1 -15 -14 -15 -20 0 -26 11 -13 23 10 11 20 8 27 -8z m3499 -22 c-13 -2 -33
-2 -45 0 -13 2 -3 4 22 4 25 0 35 -2 23 -4z m-165 -24 c-12 -7 -24 -7 -35 0
-15 9 -12 10 17 10 29 0 32 -1 18 -10z m-2138 -14 c0 -8 -8 -15 -17 -15 -10 0
-28 -3 -40 -6 -17 -5 -23 -2 -23 9 0 14 19 22 63 26 9 0 17 -6 17 -14z m-1205
-4 c3 -5 -4 -13 -16 -16 -23 -8 -34 -1 -24 14 8 13 32 14 40 2z m190 -21 c3
-5 -1 -10 -9 -10 -9 0 -16 5 -16 10 0 6 4 10 9 10 6 0 13 -4 16 -10z m1575
-10 c0 -15 -7 -20 -25 -20 -14 0 -25 5 -25 10 0 6 -7 10 -15 10 -8 0 -15 5
-15 10 0 6 18 10 40 10 33 0 40 -3 40 -20z m-1740 -25 c0 -8 -4 -15 -10 -15
-5 0 -10 7 -10 15 0 8 5 15 10 15 6 0 10 -7 10 -15z m960 -9 c0 -3 -4 -8 -10
-11 -5 -3 -10 -1 -10 4 0 6 5 11 10 11 6 0 10 -2 10 -4z m-796 -46 c-5 -5 -31
-13 -57 -16 -39 -6 -47 -4 -47 9 0 8 -6 17 -12 20 -7 2 -10 7 -6 11 3 4 16 2
28 -4 25 -13 70 -5 70 12 0 8 7 6 17 -5 11 -11 14 -20 7 -27z m2550 -15 c-4
-8 -8 -15 -10 -15 -2 0 -4 7 -4 15 0 8 4 15 10 15 5 0 7 -7 4 -15z m-2494 -15
c0 -5 -7 -10 -15 -10 -8 0 -15 5 -15 10 0 6 7 10 15 10 8 0 15 -4 15 -10z
m2640 0 c0 -5 -7 -10 -15 -10 -8 0 -15 5 -15 10 0 6 7 10 15 10 8 0 15 -4 15
-10z m-1600 -25 c0 -14 -4 -25 -10 -25 -11 0 -14 33 -3 43 11 11 13 8 13 -18z
m1540 -18 c8 -3 -4 -6 -27 -6 -24 -1 -43 1 -43 4 0 10 45 23 50 15 3 -4 12
-10 20 -13z m-835 -17 c-3 -5 -15 -10 -25 -10 -10 0 -22 5 -25 10 -4 6 7 10
25 10 18 0 29 -4 25 -10z m-709 -27 c-10 -10 -19 5 -10 18 6 11 8 11 12 0 2
-7 1 -15 -2 -18z m-796 7 c0 -5 -5 -10 -11 -10 -5 0 -7 5 -4 10 3 6 8 10 11
10 2 0 4 -4 4 -10z m-45 -30 c8 -14 42 -13 47 1 2 7 9 5 17 -5 12 -14 9 -16
-27 -16 -45 0 -72 8 -72 21 0 12 27 11 35 -1z m2202 -37 c-3 -10 -5 -2 -5 17
0 19 2 27 5 18 2 -10 2 -26 0 -35z m-537 13 c0 -3 -4 -8 -10 -11 -5 -3 -10 -1
-10 4 0 6 5 11 10 11 6 0 10 -2 10 -4z m-625 -16 c4 -6 -7 -10 -24 -10 -17 0
-31 5 -31 10 0 6 11 10 24 10 14 0 28 -4 31 -10z m-940 -50 c3 -5 -1 -10 -9
-10 -9 0 -16 5 -16 10 0 6 4 10 9 10 6 0 13 -4 16 -10z m2055 0 c0 -5 -7 -10
-15 -10 -8 0 -15 5 -15 10 0 6 7 10 15 10 8 0 15 -4 15 -10z m-1950 -52 c0
-30 -1 -31 -17 -16 -13 14 -14 20 -3 32 18 22 20 20 20 -16z m1357 -10 c-3 -8
-6 -5 -6 6 -1 11 2 17 5 13 3 -3 4 -12 1 -19z m793 2 c0 -5 -4 -10 -10 -10 -5
0 -10 5 -10 10 0 6 5 10 10 10 6 0 10 -4 10 -10z m-143 -22 c-3 -8 -6 -5 -6 6
-1 11 2 17 5 13 3 -3 4 -12 1 -19z m-771 -45 c-7 -17 -8 -17 -17 0 -12 21 -2
44 13 29 6 -6 8 -19 4 -29z m44 12 c0 -14 -2 -25 -4 -25 -2 0 -6 11 -8 25 -3
14 -1 25 3 25 5 0 9 -11 9 -25z m-1255 -5 c-3 -5 -10 -10 -16 -10 -5 0 -9 5
-9 10 0 6 7 10 16 10 8 0 12 -4 9 -10z m1438 -7 c4 -3 0 -18 -9 -31 -15 -23
-15 -26 0 -34 20 -11 21 -28 1 -28 -10 0 -15 -10 -15 -32 0 -29 -1 -30 -18
-15 -10 10 -33 17 -50 17 -18 0 -32 3 -32 7 0 18 25 73 33 73 6 0 20 11 33 25
23 25 44 31 57 18z m267 -28 c0 -8 -7 -15 -15 -15 -16 0 -20 12 -8 23 11 12
23 8 23 -8z m430 -25 c0 -11 -4 -20 -9 -20 -11 0 -22 26 -14 34 12 12 23 5 23
-14z m-867 -63 c-8 -13 -21 23 -22 58 0 13 5 8 14 -14 8 -18 12 -38 8 -44z
m387 33 c0 -5 -18 -10 -40 -10 -22 0 -40 5 -40 10 0 6 18 10 40 10 22 0 40 -4
40 -10z m180 -80 c0 -5 -4 -10 -10 -10 -5 0 -10 5 -10 10 0 6 5 10 10 10 6 0
10 -4 10 -10z m300 -20 c0 -13 -7 -20 -20 -20 -19 0 -27 20 -13 33 13 14 33 6
33 -13z m-600 -5 c0 -8 -9 -15 -20 -15 -11 0 -20 7 -20 15 0 8 9 15 20 15 11
0 20 -7 20 -15z m126 -9 c16 -16 19 -86 4 -86 -5 0 -10 15 -10 33 -1 30 -2 31
-15 13 -15 -19 -35 -14 -35 10 0 8 -7 17 -15 20 -27 11 -16 24 21 24 19 0 42
-6 50 -14z m94 -15 c0 -6 -4 -13 -10 -16 -5 -3 -10 1 -10 9 0 9 5 16 10 16 6
0 10 -4 10 -9z m90 0 c0 -5 -7 -11 -15 -15 -9 -3 -15 0 -15 9 0 8 7 15 15 15
8 0 15 -4 15 -9z m103 2 c-7 -2 -19 -2 -25 0 -7 3 -2 5 12 5 14 0 19 -2 13 -5z
m-38 -22 c3 -5 1 -12 -5 -16 -5 -3 -10 1 -10 9 0 18 6 21 15 7z m65 -7 c0 -8
-5 -12 -10 -9 -6 4 -8 11 -5 16 9 14 15 11 15 -7z m-164 -41 c-10 -10 -19 5
-10 18 6 11 8 11 12 0 2 -7 1 -15 -2 -18z m-319 -50 c-4 -17 -4 -17 -12 0 -4
9 -4 25 0 35 8 16 8 16 12 0 3 -10 3 -26 0 -35z m250 25 c-3 -8 -6 -5 -6 6 -1
11 2 17 5 13 3 -3 4 -12 1 -19z m313 6 c0 -14 -3 -14 -15 -4 -8 7 -15 14 -15
16 0 2 7 4 15 4 8 0 15 -7 15 -16z m200 7 c0 -6 -4 -13 -10 -16 -5 -3 -10 1
-10 9 0 9 5 16 10 16 6 0 10 -4 10 -9z m81 -21 c21 0 39 -4 39 -10 0 -5 -18
-10 -39 -10 -38 0 -53 13 -50 43 1 7 3 4 6 -5 3 -13 15 -18 44 -18z m-136 -20
c3 -5 -1 -10 -9 -10 -9 0 -16 5 -16 10 0 6 4 10 9 10 6 0 13 -4 16 -10z m-388
-26 c-3 -3 -12 -4 -19 -1 -8 3 -5 6 6 6 11 1 17 -2 13 -5z m-1567 -8 c0 -2 -7
-9 -15 -16 -12 -10 -15 -10 -15 4 0 9 7 16 15 16 8 0 15 -2 15 -4z m1897 -18
c-3 -8 -6 -5 -6 6 -1 11 2 17 5 13 3 -3 4 -12 1 -19z m70 0 c-3 -8 -6 -5 -6 6
-1 11 2 17 5 13 3 -3 4 -12 1 -19z m83 -84 c0 -14 -4 -23 -10 -19 -5 3 -10 15
-10 26 0 10 5 19 10 19 6 0 10 -12 10 -26z m-50 -14 c0 -5 -4 -10 -10 -10 -5
0 -10 5 -10 10 0 6 5 10 10 10 6 0 10 -4 10 -10z m210 -85 c0 -8 -7 -15 -15
-15 -16 0 -20 12 -8 23 11 12 23 8 23 -8z m87 -7 c-3 -8 -6 -5 -6 6 -1 11 2
17 5 13 3 -3 4 -12 1 -19z m-222 -38 c-3 -5 -10 -10 -16 -10 -5 0 -9 5 -9 10
0 6 7 10 16 10 8 0 12 -4 9 -10z m355 -61 c0 -5 -7 -9 -15 -9 -9 0 -12 6 -9
15 6 15 24 11 24 -6z m-2430 -139 c0 -5 -5 -10 -11 -10 -5 0 -7 5 -4 10 3 6 8
10 11 10 2 0 4 -4 4 -10z m-5 -40 c-3 -5 -10 -10 -16 -10 -5 0 -9 5 -9 10 0 6
7 10 16 10 8 0 12 -4 9 -10z m55 -40 c0 -5 -2 -10 -4 -10 -3 0 -8 5 -11 10 -3
6 -1 10 4 10 6 0 11 -4 11 -10z"/>
<path d="M3271 8094 c0 -11 3 -14 6 -6 3 7 2 16 -1 19 -3 4 -6 -2 -5 -13z"/>
<path d="M4587 8000 c3 -11 14 -20 24 -20 12 0 19 7 19 20 0 14 -7 20 -24 20
-19 0 -23 -4 -19 -20z"/>
<path d="M4700 7986 c0 -9 30 -14 35 -6 4 6 -3 10 -14 10 -12 0 -21 -2 -21 -4z"/>
<path d="M5345 6290 c3 -5 8 -10 11 -10 2 0 4 5 4 10 0 6 -5 10 -11 10 -5 0
-7 -4 -4 -10z"/>
<path d="M4385 6130 c3 -5 8 -10 11 -10 2 0 4 5 4 10 0 6 -5 10 -11 10 -5 0
-7 -4 -4 -10z"/>
<path d="M4365 5450 c3 -5 11 -10 16 -10 6 0 7 5 4 10 -3 6 -11 10 -16 10 -6
0 -7 -4 -4 -10z"/>
<path d="M5090 5350 c0 -5 5 -10 11 -10 5 0 7 5 4 10 -3 6 -8 10 -11 10 -2 0
-4 -4 -4 -10z"/>
<path d="M4161 4604 c0 -11 3 -14 6 -6 3 7 2 16 -1 19 -3 4 -6 -2 -5 -13z"/>
<path d="M4114 4582 c-6 -4 -13 -15 -17 -24 -9 -25 25 -24 40 1 16 26 2 40
-23 23z"/>
<path d="M5688 5583 c7 -3 16 -2 19 1 4 3 -2 6 -13 5 -11 0 -14 -3 -6 -6z"/>
<path d="M5900 4980 c0 -22 5 -40 10 -40 6 0 10 18 10 40 0 22 -4 40 -10 40
-5 0 -10 -18 -10 -40z"/>
<path d="M2986 4563 c-11 -11 -6 -23 9 -23 8 0 15 4 15 9 0 13 -16 22 -24 14z"/>
<path d="M5423 3423 c10 -3 17 -14 17 -29 0 -13 4 -24 9 -24 5 0 18 -3 28 -7
17 -6 17 -6 1 14 -10 11 -18 24 -18 30 0 12 -24 24 -43 22 -7 -1 -4 -3 6 -6z"/>
<path d="M5600 3310 c0 -5 9 -10 20 -10 11 0 20 5 20 10 0 6 -9 10 -20 10 -11
0 -20 -4 -20 -10z"/>
<path d="M5660 3135 c0 -17 32 -35 63 -35 20 0 37 -5 39 -12 3 -8 11 -9 24 -3
18 8 18 9 -3 12 -13 3 -23 11 -23 19 0 9 -11 14 -34 14 -19 0 -41 3 -50 6 -9
3 -16 3 -16 -1z"/>
<path d="M5340 2960 c-9 -16 -8 -20 5 -20 8 0 15 9 15 20 0 11 -2 20 -5 20 -2
0 -9 -9 -15 -20z"/>
<path d="M5575 2930 c3 -5 10 -10 16 -10 5 0 9 5 9 10 0 6 -7 10 -16 10 -8 0
-12 -4 -9 -10z"/>
<path d="M5520 2860 c0 -11 5 -20 10 -20 6 0 10 5 10 10 0 6 15 10 33 11 30 1
31 1 7 9 -44 14 -60 11 -60 -10z"/>
<path d="M4560 2075 c0 -8 7 -15 15 -15 8 0 15 7 15 15 0 8 -7 15 -15 15 -8 0
-15 -7 -15 -15z"/>
<path d="M4618 2053 c7 -3 16 -2 19 1 4 3 -2 6 -13 5 -11 0 -14 -3 -6 -6z"/>
<path d="M4320 2020 c0 -5 18 -10 40 -10 22 0 40 5 40 10 0 6 -18 10 -40 10
-22 0 -40 -4 -40 -10z"/>
<path d="M4640 2012 c0 -5 -9 -12 -21 -15 -12 -3 -18 -10 -14 -16 3 -7 0 -8
-9 -5 -13 5 -16 -2 -16 -36 0 -25 -4 -39 -10 -35 -5 3 -10 1 -10 -4 0 -13 10
-14 29 -2 8 6 24 6 38 0 37 -14 53 -2 50 41 -1 21 -5 36 -9 33 -5 -2 -8 5 -8
16 0 11 -4 23 -10 26 -5 3 -10 2 -10 -3z"/>
<path d="M4278 1973 c6 -2 18 -2 25 0 6 3 1 5 -13 5 -14 0 -19 -2 -12 -5z"/>
<path d="M4190 1930 c-8 -5 -10 -10 -5 -10 6 0 20 -3 33 -6 16 -5 22 -2 22 10
0 18 -27 21 -50 6z"/>
<path d="M4545 1871 c-3 -5 -1 -12 5 -16 5 -3 10 1 10 9 0 18 -6 21 -15 7z"/>
<path d="M4748 1823 c7 -3 16 -2 19 1 4 3 -2 6 -13 5 -11 0 -14 -3 -6 -6z"/>
<path d="M4467 1812 c-15 -23 12 -42 57 -40 l41 1 -42 4 c-34 3 -42 8 -45 26
-2 16 -5 18 -11 9z"/>
<path d="M4791 1774 c0 -11 3 -14 6 -6 3 7 2 16 -1 19 -3 4 -6 -2 -5 -13z"/>
<path d="M4480 1720 c0 -35 29 -43 37 -10 3 11 14 20 24 20 11 0 19 5 19 10 0
6 -18 10 -40 10 -38 0 -40 -2 -40 -30z"/>
<path d="M4640 1690 c0 -5 5 -10 11 -10 5 0 7 5 4 10 -3 6 -8 10 -11 10 -2 0
-4 -4 -4 -10z"/>
<path d="M5240 1405 c0 -8 9 -15 20 -15 11 0 20 7 20 15 0 8 -9 15 -20 15 -11
0 -20 -7 -20 -15z"/>
<path d="M6280 9684 c-103 -15 -172 -29 -219 -45 -30 -11 -64 -19 -76 -19 -13
0 -33 -9 -46 -19 l-24 -20 20 -38 c15 -27 28 -39 50 -43 l30 -6 -30 -16 c-16
-9 -40 -27 -53 -41 -22 -23 -23 -29 -16 -116 6 -80 10 -94 30 -110 27 -21 69
-19 114 4 16 8 50 14 77 13 26 -1 85 1 131 4 65 5 86 10 97 25 18 24 27 98 24
208 -1 50 1 111 5 136 8 42 6 47 -19 67 -27 21 -41 23 -95 16z"/>
<path d="M6603 8142 c-47 -37 -58 -120 -18 -146 40 -27 90 -21 114 13 12 16
21 34 21 39 0 6 5 12 11 14 27 9 -51 97 -86 97 -11 1 -30 -7 -42 -17z"/>
<path d="M2950 7070 c-11 -7 -7 -10 18 -10 17 0 32 5 32 10 0 13 -30 13 -50 0z"/>
<path d="M2086 6932 c-3 -5 -24 -60 -46 -123 -35 -97 -41 -123 -38 -176 6
-106 21 -98 64 32 30 92 53 122 101 131 42 8 47 18 30 64 -22 62 -39 80 -74
80 -17 0 -34 -4 -37 -8z"/>
<path d="M1810 6619 c-30 -4 -95 -11 -145 -14 -49 -3 -130 -12 -180 -20 -49
-8 -142 -18 -205 -24 -116 -9 -349 -41 -449 -60 -29 -6 -56 -11 -60 -12 -3 0
3 -4 14 -8 20 -8 169 -5 237 4 21 3 72 8 115 10 43 3 107 10 143 15 36 5 124
14 195 19 72 6 173 17 225 25 52 9 128 20 168 27 60 9 72 14 72 30 0 21 -28
23 -130 8z"/>
<path d="M2190 6200 c0 -5 5 -10 10 -10 6 0 10 5 10 10 0 6 -4 10 -10 10 -5 0
-10 -4 -10 -10z"/>
<path d="M3319 5971 c-24 -30 -40 -61 -30 -61 10 0 54 70 48 76 -2 2 -10 -5
-18 -15z"/>
<path d="M2525 4440 c-3 -5 -4 -10 -1 -10 2 0 11 -3 20 -6 11 -4 16 -1 16 10
0 18 -25 22 -35 6z"/>
<path d="M2233 4045 c-3 -9 -3 -18 -1 -21 3 -3 8 4 11 16 6 23 -1 27 -10 5z"/>
<path d="M2201 3924 c0 -11 3 -14 6 -6 3 7 2 16 -1 19 -3 4 -6 -2 -5 -13z"/>
<path d="M2191 3874 c0 -11 3 -14 6 -6 3 7 2 16 -1 19 -3 4 -6 -2 -5 -13z"/>
<path d="M2176 3788 c-5 -21 -5 -46 0 -55 6 -15 8 -13 12 10 2 15 2 39 0 55
-4 25 -5 24 -12 -10z"/>
<path d="M2165 3690 c-3 -5 -6 -33 -6 -62 0 -89 -7 -196 -13 -207 -4 -5 -2
-12 4 -16 10 -6 12 9 15 80 1 27 8 88 20 183 4 31 -7 43 -20 22z"/>
<path d="M27 3087 l-28 -11 3 -486 c3 -431 5 -488 20 -510 23 -36 29 -77 20
-137 -9 -55 -7 -66 19 -75 17 -6 30 -61 49 -198 11 -80 16 -237 7 -246 -7 -7
-53 77 -71 134 -9 27 -23 58 -31 68 -13 17 -14 -42 -15 -467 0 -334 3 -488 11
-496 8 -8 8 -22 0 -49 -7 -24 -11 -152 -11 -327 l0 -287 758 2 757 3 3 28 c3
28 -6 35 -24 17 -14 -14 -64 4 -82 28 -11 14 -30 17 -112 17 -96 0 -100 -1
-100 -22 0 -31 -10 -34 -90 -27 -66 7 -71 9 -68 29 4 18 1 20 -23 17 -25 -4
-31 1 -51 42 -20 43 -38 59 -38 36 0 -5 -4 -10 -10 -10 -5 0 -10 7 -10 15 0
27 -20 16 -21 -12 -1 -22 -3 -24 -6 -7 -2 12 -13 24 -25 27 -14 4 -19 11 -15
21 5 12 0 16 -17 16 -26 0 -39 30 -30 67 4 16 0 22 -21 27 -22 6 -25 9 -15 21
10 11 7 15 -14 21 -20 5 -26 13 -26 33 -1 36 -25 76 -46 76 -14 0 -21 11 -26
40 -10 59 -9 115 2 115 21 0 8 19 -20 29 -36 12 -43 51 -10 51 11 0 20 7 20
15 0 10 -8 13 -27 9 -16 -2 -34 0 -42 5 -12 8 -12 12 3 26 21 22 16 39 -12 43
-24 4 -32 47 -9 55 9 3 7 10 -7 25 -10 12 -16 28 -13 36 7 17 -20 135 -35 152
-5 8 -3 14 7 18 20 7 18 50 -4 106 -15 36 -20 41 -24 25 -3 -11 -4 -1 -1 22 4
31 2 43 -11 50 -29 17 -60 133 -35 133 7 0 7 6 0 19 -5 11 -10 29 -10 40 0 12
-4 21 -10 21 -6 0 -10 28 -10 63 0 36 -5 68 -12 75 -7 7 -14 29 -15 50 -4 64
-18 157 -25 167 -3 6 -7 55 -9 110 -2 65 -9 116 -20 145 -9 25 -23 60 -29 78
-7 17 -19 32 -26 32 -8 0 -14 7 -14 15 0 8 -4 23 -10 33 -5 9 -14 30 -20 45
-5 16 -14 25 -20 22 -5 -3 -10 -1 -10 4 0 6 5 11 10 11 19 0 10 49 -14 77 -23
26 -23 29 -9 68 9 22 17 59 19 83 2 36 0 42 -17 42 -12 0 -19 7 -19 18 0 10
-5 23 -12 30 -7 7 -8 12 -4 12 5 0 14 -7 20 -16 15 -20 46 -8 46 17 0 12 -7
19 -20 19 -23 0 -24 4 -10 30 6 11 16 17 23 15 16 -6 37 40 37 82 0 26 -4 33
-20 33 -17 0 -20 7 -20 39 0 22 5 41 12 43 7 3 9 12 5 22 -4 9 -11 14 -17 11
-11 -7 -70 25 -70 37 0 4 -11 8 -24 8 -34 0 -87 20 -80 31 8 13 52 11 57 -3 2
-7 8 -10 12 -6 4 4 2 14 -4 22 -7 8 -10 20 -6 26 8 13 -21 11 -58 -3z m130
-499 c-3 -8 -6 -5 -6 6 -1 11 2 17 5 13 3 -3 4 -12 1 -19z"/>
<path d="M2108 2820 c-3 -25 -1 -49 3 -54 14 -16 16 -4 10 49 l-7 50 -6 -45z"/>
<path d="M2124 2703 c3 -10 10 -38 15 -63 18 -88 81 -243 105 -257 7 -4 16
-21 20 -38 3 -16 8 -34 10 -40 2 -5 7 -20 11 -32 4 -13 15 -23 26 -23 12 0 19
-7 19 -20 0 -12 7 -32 16 -45 9 -13 13 -29 9 -36 -5 -7 -1 -10 10 -7 45 8 42
51 -7 117 -10 13 -18 32 -18 41 0 10 -9 20 -20 23 -13 3 -20 14 -20 30 0 13
-7 30 -15 37 -8 7 -15 18 -15 25 0 6 -9 20 -20 30 -11 10 -20 28 -20 40 0 13
-6 28 -14 34 -8 6 -19 33 -25 59 -13 55 -52 142 -64 142 -5 0 -6 -8 -3 -17z"/>
<path d="M2411 2132 c-7 -13 -6 -23 1 -30 16 -16 28 -15 51 6 19 17 20 16 15
-15 -2 -18 -2 -31 0 -28 3 2 18 -16 33 -40 19 -29 36 -45 49 -45 11 0 20 -4
20 -10 0 -5 6 -10 14 -10 7 0 22 -11 32 -25 10 -14 24 -25 31 -25 6 0 13 -5
15 -12 4 -12 78 -22 78 -11 0 4 -12 19 -27 35 -23 24 -24 29 -12 44 13 16 12
17 -9 11 -30 -7 -95 30 -88 50 4 10 1 13 -13 8 -27 -8 -71 12 -71 32 -1 34
-56 83 -94 83 -8 0 -20 -8 -25 -18z"/>
<path d="M3440 2050 c0 -5 7 -7 15 -4 8 4 15 8 15 10 0 2 -7 4 -15 4 -8 0 -15
-4 -15 -10z"/>
<path d="M2730 1850 c0 -5 5 -10 10 -10 6 0 10 5 10 10 0 6 -4 10 -10 10 -5 0
-10 -4 -10 -10z"/>
<path d="M2770 1830 c0 -5 5 -10 10 -10 6 0 10 5 10 10 0 6 -4 10 -10 10 -5 0
-10 -4 -10 -10z"/>
<path d="M0 1778 c0 -21 2 -38 4 -38 9 0 12 50 5 62 -6 8 -9 -1 -9 -24z"/>
<path d="M3329 1617 c6 -6 11 -19 11 -29 0 -25 25 -33 48 -16 14 10 17 19 11
35 -6 16 -16 21 -44 21 -27 0 -34 -3 -26 -11z"/>
<path d="M7025 1410 c4 -6 11 -8 16 -5 14 9 11 15 -7 15 -8 0 -12 -5 -9 -10z"/>
<path d="M6775 1400 c-3 -5 1 -10 9 -10 9 0 16 5 16 10 0 6 -4 10 -9 10 -6 0
-13 -4 -16 -10z"/>
<path d="M7200 1350 c0 -5 5 -10 11 -10 5 0 7 5 4 10 -3 6 -8 10 -11 10 -2 0
-4 -4 -4 -10z"/>
<path d="M3749 1339 c16 -6 28 -6 35 1 7 7 -1 10 -24 9 -33 0 -34 -1 -11 -10z"/>
<path d="M3826 1301 c-4 -7 -5 -15 -2 -18 9 -9 19 4 14 18 -4 11 -6 11 -12 0z"/>
<path d="M6640 1275 c0 -8 7 -15 16 -15 14 0 14 3 4 15 -7 8 -14 15 -16 15 -2
0 -4 -7 -4 -15z"/>
<path d="M3948 1248 c9 -9 15 -9 24 0 9 9 7 12 -12 12 -19 0 -21 -3 -12 -12z"/>
<path d="M6539 1182 c-8 -20 -14 -22 -42 -17 -25 5 -37 2 -47 -10 -13 -15 -12
-20 8 -35 12 -10 22 -24 22 -30 0 -9 14 -10 48 -6 26 4 72 7 102 7 42 1 48 3
25 8 -26 5 -30 11 -33 44 -2 21 1 37 7 37 6 0 11 -8 11 -17 0 -13 3 -14 11 -6
18 18 -11 40 -60 45 -38 3 -44 1 -52 -20z m-9 -74 c0 -10 -13 -10 -34 -2 -9 3
-16 15 -16 26 0 18 1 18 25 1 13 -10 25 -21 25 -25z"/>
<path d="M3945 1190 c-3 -5 3 -10 15 -10 12 0 18 5 15 10 -3 6 -10 10 -15 10
-5 0 -12 -4 -15 -10z"/>
<path d="M6590 1010 c0 -5 11 -10 25 -10 14 0 25 5 25 10 0 6 -11 10 -25 10
-14 0 -25 -4 -25 -10z"/>
<path d="M4237 993 c-12 -11 -8 -23 8 -23 8 0 15 7 15 15 0 16 -12 20 -23 8z"/>
<path d="M7120 966 c0 -14 5 -26 10 -26 6 0 10 7 10 15 0 8 0 18 1 22 0 4 -4
9 -10 11 -6 2 -11 -8 -11 -22z"/>
<path d="M3032 898 c5 -15 48 -24 48 -10 0 10 -23 22 -42 22 -5 0 -8 -6 -6
-12z"/>
<path d="M3385 870 c-3 -5 3 -10 15 -10 12 0 18 5 15 10 -3 6 -10 10 -15 10
-5 0 -12 -4 -15 -10z"/>
<path d="M4301 811 c-10 -6 -10 -10 -1 -16 13 -8 24 -1 19 14 -3 6 -10 7 -18
2z"/>
<path d="M2914 775 c-13 -34 28 -49 45 -16 8 15 7 20 -5 25 -24 9 -34 7 -40
-9z"/>
<path d="M6780 720 c0 -15 7 -20 27 -20 l27 0 -22 20 c-12 11 -24 20 -27 20
-3 0 -5 -9 -5 -20z"/>
<path d="M2801 714 c0 -11 3 -14 6 -6 3 7 2 16 -1 19 -3 4 -6 -2 -5 -13z"/>
<path d="M2880 711 c0 -12 5 -21 10 -21 6 0 10 6 10 14 0 8 -4 18 -10 21 -5 3
-10 -3 -10 -14z"/>
<path d="M4384 719 c-3 -6 -1 -16 5 -22 8 -8 11 -5 11 11 0 24 -5 28 -16 11z"/>
<path d="M4400 638 c0 -10 -5 -18 -12 -18 -6 0 -9 -3 -5 -6 3 -3 12 -2 21 3
10 6 12 13 6 23 -8 13 -10 12 -10 -2z"/>
<path d="M6945 630 c-3 -5 -1 -10 4 -10 6 0 11 5 11 10 0 6 -2 10 -4 10 -3 0
-8 -4 -11 -10z"/>
<path d="M2871 621 c-8 -5 -11 -16 -7 -28 5 -15 13 -19 31 -15 15 2 25 0 25
-7 0 -6 -9 -11 -20 -11 -15 0 -20 -7 -20 -25 0 -22 -3 -24 -19 -16 -15 8 -20
7 -25 -5 -13 -33 -6 -44 27 -45 25 0 28 -2 12 -8 -10 -4 -31 -7 -45 -5 -14 1
-33 2 -42 3 -11 1 -18 9 -18 20 0 10 -7 24 -15 31 -9 7 -13 21 -10 31 8 24
-12 34 -31 15 -8 -9 -19 -16 -24 -16 -6 0 -5 -11 0 -26 6 -14 10 -38 10 -53 0
-15 5 -32 12 -39 9 -9 8 -15 -8 -27 -26 -19 -38 -14 -42 18 -2 19 -9 27 -23
27 -21 0 -25 -20 -8 -37 8 -8 6 -17 -9 -33 -16 -17 -20 -18 -25 -6 -3 8 -1 17
6 20 7 2 2 5 -9 5 -16 1 -23 -7 -28 -30 -3 -17 -10 -28 -15 -24 -5 3 -12 1
-16 -5 -11 -18 -47 -11 -52 10 -6 23 -4 23 -39 10 -26 -10 -26 -11 -9 -30 18
-19 17 -20 -8 -20 -19 0 -27 5 -28 18 -1 33 -18 -20 -18 -60 -1 -31 -5 -38
-21 -38 -17 0 -20 7 -20 49 0 58 -11 70 -40 41 -26 -26 -26 -60 0 -67 11 -3
20 -12 20 -20 0 -10 -6 -13 -16 -9 -39 15 -64 18 -64 7 0 -6 -7 -11 -15 -11
-8 0 -24 -9 -35 -20 -12 -12 -25 -18 -31 -14 -6 3 -29 -3 -52 -15 -23 -11 -57
-26 -74 -33 -37 -14 -41 -23 -17 -32 9 -4 14 -9 11 -12 -3 -4 -28 2 -55 11
-58 21 -102 15 -102 -15 0 -13 -7 -20 -20 -20 -16 0 -20 -7 -20 -30 l0 -30
690 0 c479 0 690 3 690 11 0 5 -4 8 -9 5 -27 -17 -34 107 -7 127 8 6 7 10 -1
14 -26 10 -3 63 27 63 7 0 -12 23 -41 51 -39 37 -54 59 -54 78 0 20 -6 27 -25
29 -14 2 -29 10 -33 18 -11 19 -27 18 -27 -1 0 -8 5 -15 10 -15 6 0 10 -12 10
-26 0 -18 -4 -24 -13 -21 -22 8 -38 -8 -46 -42 -8 -41 -24 -41 -32 1 -4 18 -7
26 -8 16 -1 -11 -7 -14 -20 -11 -27 7 -35 32 -16 53 21 23 19 30 -11 30 -16 0
-34 -10 -46 -25 -11 -14 -23 -25 -28 -25 -15 0 -21 33 -8 43 9 6 8 7 -4 3 -28
-9 -48 4 -48 30 0 22 4 24 44 24 24 0 51 3 59 6 11 4 16 -2 19 -18 4 -30 32
-30 36 0 2 12 8 22 13 22 5 0 8 12 8 28 -1 16 -3 20 -6 10 -2 -10 -13 -18 -24
-18 -17 0 -20 6 -17 43 2 35 7 43 26 45 16 3 22 -2 22 -16 0 -20 39 -52 63
-52 8 0 17 8 21 18 3 9 9 23 12 30 3 7 -1 12 -10 12 -15 0 -15 2 0 26 22 33 8
48 -30 32 -20 -10 -26 -19 -23 -35 5 -26 -8 -31 -17 -8 -3 8 -17 20 -31 25
-14 5 -25 16 -25 24 0 7 -7 17 -16 20 -19 7 -16 8 -33 -3z m169 -101 c0 -5 -4
-10 -10 -10 -5 0 -10 5 -10 10 0 6 5 10 10 10 6 0 10 -4 10 -10z m55 -349 c7
-12 -12 -24 -25 -16 -11 7 -4 25 10 25 5 0 11 -4 15 -9z m37 -109 c-7 -2 -12
-13 -12 -25 -1 -21 -1 -21 -12 -3 -8 15 -8 21 0 24 7 2 12 18 13 35 l1 32 10
-29 c8 -22 8 -31 0 -34z m-32 33 c0 -8 -4 -15 -9 -15 -5 0 -11 7 -15 15 -3 9
0 15 9 15 8 0 15 -7 15 -15z"/>
<path d="M2761 586 c-7 -8 -8 -17 -3 -20 6 -3 15 1 21 8 7 8 8 17 3 20 -6 3
-15 -1 -21 -8z"/>
<path d="M6905 590 c-7 -12 2 -30 16 -30 5 0 9 9 9 20 0 21 -15 27 -25 10z"/>
<path d="M3000 449 c0 -5 5 -7 10 -4 6 3 10 8 10 11 0 2 -4 4 -10 4 -5 0 -10
-5 -10 -11z"/>
<path d="M4400 450 c0 -5 4 -10 9 -10 6 0 13 5 16 10 3 6 -1 10 -9 10 -9 0
-16 -4 -16 -10z"/>
<path d="M3120 390 c0 -5 7 -10 16 -10 8 0 12 5 9 10 -3 6 -10 10 -16 10 -5 0
-9 -4 -9 -10z"/>
<path d="M4386 375 c-3 -8 -1 -15 4 -15 6 0 10 7 10 15 0 8 -2 15 -4 15 -2 0
-6 -7 -10 -15z"/>
<path d="M3310 216 c0 -44 -4 -58 -20 -69 -21 -14 -21 -15 5 -21 34 -9 48 1
41 29 -4 14 0 29 9 39 8 8 15 18 15 23 -1 10 -36 53 -44 53 -3 0 -6 -24 -6
-54z"/>
<path d="M7135 178 c-9 -22 4 -43 17 -30 7 7 7 16 0 29 -10 17 -11 17 -17 1z"/>
<path d="M1520 134 c0 -8 5 -12 10 -9 6 3 10 10 10 16 0 5 -4 9 -10 9 -5 0
-10 -7 -10 -16z"/>
<path d="M3360 110 c0 -5 7 -10 15 -10 8 0 15 5 15 10 0 6 -7 10 -15 10 -8 0
-15 -4 -15 -10z"/>
<path d="M4315 111 c-3 -5 -1 -12 5 -16 5 -3 10 1 10 9 0 18 -6 21 -15 7z"/>
<path d="M1776 89 c-11 -13 -14 -24 -8 -28 6 -3 12 -20 15 -36 4 -23 5 -21 4
9 -1 24 3 41 11 44 13 4 17 32 4 32 -4 0 -16 -10 -26 -21z"/>
<path d="M1150 76 c0 -9 7 -16 16 -16 9 0 14 5 12 12 -6 18 -28 21 -28 4z"/>
<path d="M1585 70 c-3 -5 -1 -10 4 -10 6 0 11 -8 11 -18 0 -26 20 -42 52 -42
19 0 28 5 28 16 0 15 2 15 25 0 33 -22 55 -20 55 4 0 17 -7 20 -40 20 -22 0
-40 5 -40 10 0 6 -13 10 -29 10 -17 0 -33 5 -36 10 -3 6 -10 10 -15 10 -5 0
-12 -4 -15 -10z"/>
<path d="M3314 64 c3 -9 6 -27 6 -40 0 -22 4 -24 52 -24 l51 0 -24 26 c-16 19
-20 28 -11 31 24 9 0 23 -40 23 -32 0 -39 -3 -34 -16z"/>
<path d="M7280 45 c0 -8 5 -15 10 -15 6 0 10 7 10 15 0 8 -4 15 -10 15 -5 0
-10 -7 -10 -15z"/>
<path d="M7217 23 c-14 -13 -6 -23 19 -23 22 0 25 2 14 15 -14 16 -23 19 -33
8z"/>
</g>
</svg>
